<?xml version="1.0" encoding="utf-8"?>
<!-- Generator: Adobe Illustrator 18.0.0, SVG Export Plug-In . SVG Version: 6.00 Build 0)  -->
<!DOCTYPE svg PUBLIC "-//W3C//DTD SVG 1.1//EN" "http://www.w3.org/Graphics/SVG/1.1/DTD/svg11.dtd">
<svg version="1.1" id="Layer_1" xmlns="http://www.w3.org/2000/svg" xmlns:xlink="http://www.w3.org/1999/xlink" x="0px" y="0px"
	 width="28.4px" height="30.5px" viewBox="0 0 28.4 30.5" enable-background="new 0 0 28.4 30.5" xml:space="preserve">
<g>
	<path fill="none" stroke="#7D1CB6" stroke-width="1.4108" stroke-miterlimit="10" d="M14.3,0.8c0,0,10.5,4.2,13.2,5.4
		c0.2,0.1,0.2,0.2,0.2,0.4c0,4.9,0,9.8,0,14.7c0,0.2-0.1,0.3-0.2,0.4c-2.3,1.6-4.6,3.1-7,4.7c-1.7,1.2-3.4,2.3-5.1,3.5
		c-0.1,0-0.1,0-0.2,0c0,0-0.1-0.1-0.1-0.1c-4.7-2.7-9.4-5.4-14.1-8.1c-0.2-0.1-0.2-0.2-0.2-0.4c0-4.9,0-9.8,0-14.7
		c0-0.2,0-0.3,0.2-0.4C4.2,4.8,14.3,0.8,14.3,0.8z"/>
	<circle fill="#7D1CB6" cx="5.5" cy="13.3" r="1.4"/>
	<circle fill="#7D1CB6" cx="10.5" cy="15.9" r="1.4"/>
	<ellipse fill="#7D1CB6" cx="19.5" cy="15.2" rx="1.2" ry="1.6"/>
	<ellipse fill="#7D1CB6" cx="24" cy="19.2" rx="1.2" ry="1.6"/>
	<ellipse fill="#7D1CB6" cx="14.7" cy="6.1" rx="1.5" ry="1.1"/>
	<circle fill="#7D1CB6" cx="10.5" cy="21.5" r="1.4"/>
	<circle fill="#7D1CB6" cx="5.5" cy="18.4" r="1.4"/>
	<line fill="none" stroke="#7D1CB6" stroke-width="1.4108" stroke-miterlimit="10" x1="15.4" y1="29.8" x2="15.4" y2="12.2"/>
	<line fill="none" stroke="#7D1CB6" stroke-width="1.4108" stroke-miterlimit="10" x1="15.4" y1="12.2" x2="0.7" y2="6.5"/>
	<line fill="none" stroke="#7D1CB6" stroke-width="1.4108" stroke-miterlimit="10" x1="15.4" y1="12.2" x2="27.4" y2="6.1"/>
</g>
</svg>
