<?xml version="1.0" encoding="utf-8"?>
<!-- Generator: Adobe Illustrator 18.0.0, SVG Export Plug-In . SVG Version: 6.00 Build 0)  -->
<!DOCTYPE svg PUBLIC "-//W3C//DTD SVG 1.1//EN" "http://www.w3.org/Graphics/SVG/1.1/DTD/svg11.dtd">
<svg version="1.1" id="Layer_1" xmlns="http://www.w3.org/2000/svg" xmlns:xlink="http://www.w3.org/1999/xlink" x="0px" y="0px"
	 width="32.3px" height="24.1px" viewBox="0 0 32.3 24.1" enable-background="new 0 0 32.3 24.1" xml:space="preserve">
<g>
	<rect x="0.7" y="0.7" fill="none" stroke="#7D1CB6" stroke-width="1.4108" stroke-miterlimit="10" width="30.9" height="22.7"/>
	<path fill="none" stroke="#7D1CB6" stroke-width="1.2549" stroke-miterlimit="10" d="M13.3,15.3c0,0.6-0.6,1.2-1.3,1.2H6.2
		c-0.7,0-1.3-0.5-1.3-1.2v-2.7c0-0.6,0.6-1.2,1.3-1.2H12c0.7,0,1.3,0.5,1.3,1.2V15.3z"/>
	<ellipse fill="none" stroke="#7D1CB6" stroke-width="1.2549" stroke-miterlimit="10" cx="9.2" cy="6.9" rx="2.8" ry="2.6"/>
	<g>
		<line fill="none" stroke="#7D1CB6" stroke-width="1.4108" stroke-miterlimit="10" x1="16.6" y1="5" x2="28" y2="5"/>
		<line fill="none" stroke="#7D1CB6" stroke-width="1.4108" stroke-miterlimit="10" x1="16.6" y1="8.4" x2="28" y2="8.4"/>
		<line fill="none" stroke="#7D1CB6" stroke-width="1.4108" stroke-miterlimit="10" x1="16.6" y1="12" x2="28" y2="12"/>
		<line fill="none" stroke="#7D1CB6" stroke-width="1.4108" stroke-miterlimit="10" x1="16.6" y1="15.6" x2="27.9" y2="15.6"/>
		<line fill="none" stroke="#7D1CB6" stroke-width="1.4108" stroke-miterlimit="10" x1="16.6" y1="18.9" x2="28" y2="18.9"/>
	</g>
</g>
</svg>
