<?xml version="1.0" encoding="utf-8"?>
<!-- Generator: Adobe Illustrator 18.0.0, SVG Export Plug-In . SVG Version: 6.00 Build 0)  -->
<!DOCTYPE svg PUBLIC "-//W3C//DTD SVG 1.1//EN" "http://www.w3.org/Graphics/SVG/1.1/DTD/svg11.dtd">
<svg version="1.1" id="Layer_1" xmlns="http://www.w3.org/2000/svg" xmlns:xlink="http://www.w3.org/1999/xlink" x="0px" y="0px"
	 width="25.9px" height="24.6px" viewBox="0 0 25.9 24.6" enable-background="new 0 0 25.9 24.6" xml:space="preserve">
<g>
	<path fill="#7D1CB6" d="M7.5,22.6c-0.3,0.6-0.5,1.1-0.8,1.5c-0.1,0.2-0.5,0.4-0.8,0.4c-0.9,0-1.8,0.1-2.6-0.1
		c-0.8-0.1-1.2-0.7-1.2-1.5c0-0.7,0-1.4-0.4-2.1c-0.1-0.2-0.1-0.4-0.1-0.6c0-2.7,0-5.4,0-8c0-0.4-0.1-0.6-0.6-0.6
		c-0.6,0-1.1-0.4-1.1-1C0,9.4,0,8.2,0,7c0-0.6,0.4-1,1.1-1c0.4,0,0.6-0.2,0.6-0.6c0-1.1-0.2-2.2,0.2-3.3c0.4-1.2,1.4-1.8,2.6-2
		C5.2,0,5.9,0,6.7,0c4.8,0,9.6,0,14.5,0c0.9,0,1.8,0.2,2.3,1c0.4,0.6,0.7,1.3,0.8,1.9c0.2,0.8,0.1,1.7,0.1,2.6
		c0,0.4,0.2,0.5,0.5,0.5c0.8,0.1,1,0.3,1,1.1c0,1.2,0,2.5,0,3.7c0,0.6-0.3,1-1,0.9c-0.5,0-0.5,0.2-0.5,0.6c0,2.6,0,5.2,0,7.8
		c0,0.3,0,0.7-0.2,1c-0.4,0.6-0.4,1.3-0.4,2c0,0.8-0.7,1.5-1.6,1.5c-0.6,0-1.2,0-1.8,0c-1,0-1.6-0.6-1.6-1.5c0-0.3-0.1-0.5-0.4-0.5
		C14.7,22.6,11,22.6,7.5,22.6z M2.6,11.8c0,2.8,0,5.7,0,8.5c0,0.7,0.3,1.1,1,1.3c0.4,0.1,0.8,0.2,1.2,0.2c5.4,0,10.8,0,16.3,0
		c0.5,0,1-0.1,1.5-0.2c0.6-0.1,1-0.7,0.9-1.2c0-5.8-0.1-11.6-0.1-17.3c0-1.2-0.7-2-2.3-2c-5.2,0-10.4,0-15.6,0c-0.4,0-0.9,0-1.3,0.2
		C3.1,1.4,2.6,1.9,2.6,3.2C2.5,6.1,2.6,8.9,2.6,11.8z M3,22.4c0,0.1,0,0.2,0,0.3c0,0.8,0.2,1,1,1c0.4,0,0.9,0,1.3,0
		c1,0,1.1-0.1,0.9-1C5.2,22.6,4.1,22.5,3,22.4z M19.8,22.7c-0.1,1-0.1,1,0.9,1c0.3,0,0.7,0,1,0c1.1,0,1.1,0,1.1-1.1
		c0-0.1,0-0.1,0-0.2C21.8,22.5,20.8,22.6,19.8,22.7z M1.6,10.8c0-1.3,0-2.6,0-3.9C1.1,6.7,0.9,6.9,0.9,7.4c0,0.9,0,1.9,0,2.8
		C0.9,10.7,1.1,10.9,1.6,10.8z M24.9,10.8c0-1.3,0-2.6,0-4c-0.2,0-0.4,0-0.5,0.1c0,1.3,0,2.6,0,3.9C24.6,10.8,24.8,10.8,24.9,10.8z"
		/>
	<path fill="#7D1CB6" d="M13,5c2.5,0,5,0,7.5,0c1,0,1.8,0.8,1.8,1.7c0,2.1,0,4.2,0,6.2c0,0.8-1.1,1.8-2,1.8c-5,0-10,0-15,0
		c-0.8,0-1.6-0.8-1.6-1.5c0-2.2,0-4.4,0-6.6C3.8,5.6,4.4,5,5.5,5C8,4.9,10.5,5,13,5z M13,5.8c-2.5,0-5,0-7.4,0
		c-0.7,0-0.9,0.2-0.9,0.8c0,2.1,0,4.2,0,6.3c0,0.6,0.3,0.8,0.8,0.8c0.8,0,1.5,0,2.3,0c4.1,0,8.2,0,12.2,0c0.8,0,1.3-0.4,1.3-1
		c0-2,0-4,0-6c0-0.7-0.3-0.9-1-0.9C17.9,5.8,15.5,5.8,13,5.8z"/>
	<path fill="#7D1CB6" d="M13.2,4.3c-1.7,0-3.5,0-5.2,0c-0.8,0-1.2-0.4-1.2-1.1c0-0.2,0-0.3,0-0.5c0-0.8,0.5-1.2,1.3-1.2
		c3.4,0,6.9,0,10.3,0c0.7,0,1.1,0.3,1.3,0.8c0.2,0.6,0,1.6-0.5,1.9c-0.2,0.1-0.5,0.2-0.7,0.2C16.8,4.3,15,4.3,13.2,4.3z M18.7,2.4
		c-0.1,0-0.1,0-0.2,0c-3.4,0-6.8,0-10.3,0c-0.4,0-0.5,0.1-0.5,0.5c0,0.2,0,0.4,0,0.6c3.7,0,7.3,0,10.9,0C18.7,3,18.7,2.7,18.7,2.4z"
		/>
	<path fill="#7D1CB6" d="M3.7,18.4c0-1.1,1.1-2.3,2.3-2.2c1.2,0.1,2.2,0.9,2.3,2.2c0,1.1-1.1,2.2-2.3,2.2
		C4.9,20.6,3.6,19.5,3.7,18.4z M4.7,18.5c0,0.8,0.5,1.3,1.3,1.3c0.8,0,1.3-0.5,1.4-1.2c0-0.8-0.5-1.3-1.3-1.3
		C5.1,17.2,4.7,17.6,4.7,18.5z"/>
	<path fill="#7D1CB6" d="M20,20.6c-1.3,0-2.2-1-2.3-2.2c0-1.1,1.1-2.1,2.2-2.1c1.2,0,2.3,0.9,2.3,2.1C22.4,19.6,21,20.7,20,20.6z
		 M18.7,18.4c0,0.8,0.5,1.3,1.4,1.3c0.7,0,1.3-0.6,1.3-1.3c0-0.8-0.5-1.2-1.3-1.2C19.1,17.2,18.7,17.6,18.7,18.4z"/>
</g>
</svg>
