<?xml version="1.0" encoding="utf-8"?>
<!-- Generator: Adobe Illustrator 18.0.0, SVG Export Plug-In . SVG Version: 6.00 Build 0)  -->
<!DOCTYPE svg PUBLIC "-//W3C//DTD SVG 1.1//EN" "http://www.w3.org/Graphics/SVG/1.1/DTD/svg11.dtd">
<svg version="1.1" id="Layer_1" xmlns="http://www.w3.org/2000/svg" xmlns:xlink="http://www.w3.org/1999/xlink" x="0px" y="0px"
	 width="29.3px" height="23.9px" viewBox="0 0 29.3 23.9" enable-background="new 0 0 29.3 23.9" xml:space="preserve">
<g>
	<path fill="none" stroke="#7D1CB6" stroke-width="1.8177" stroke-miterlimit="10" d="M16.8,12c0,3.2,0,6.5,0,9.7
		c0,0.9-0.5,1.5-1.3,1.3c-0.3,0-0.5-0.2-0.7-0.4c-2.1-1.8-4.1-3.6-6.2-5.4c-0.2-0.2-0.6-0.3-0.9-0.4c-1.8,0-3.6,0-5.4,0
		c-0.9,0-1.3-0.4-1.3-1.3c0-2.5,0-4.9,0-7.4c0-0.9,0.4-1.3,1.3-1.3c1.9,0,3.7,0,5.6,0c0.3,0,0.6-0.1,0.8-0.3
		c2.1-1.7,4.1-3.5,6.1-5.3C15.1,1,15.6,0.8,16.1,1c0.5,0.2,0.7,0.7,0.7,1.2C16.7,5.5,16.8,8.7,16.8,12z"/>
	<path fill="#7D1CB6" d="M29.3,12.1c0,3.8-1.2,7.2-3.5,10.3c-0.3,0.4-0.7,0.7-1.3,0.6c-0.8-0.2-1-1-0.5-1.8c0.7-1.1,1.5-2.2,1.9-3.3
		c2.1-5.2,1.5-10.1-1.8-14.7c-0.1-0.2-0.3-0.3-0.4-0.5c-0.3-0.5-0.2-1,0.3-1.4c0.4-0.3,1-0.3,1.4,0.1c0.3,0.3,0.6,0.7,0.8,1.1
		C28.3,5.3,29.3,8.5,29.3,12.1z"/>
	<path fill="#7D1CB6" d="M25.6,12.3c0,2.6-0.8,5.1-2.4,7.4c-0.3,0.4-0.6,0.7-1.1,0.6c-0.9-0.1-1.3-1-0.8-1.7
		c0.7-1.1,1.4-2.3,1.7-3.5c0.9-3.3,0.4-6.5-1.5-9.3c-0.6-0.9-0.6-1.5,0-1.9c0.6-0.4,1.2-0.2,1.8,0.7C24.8,6.8,25.6,9.3,25.6,12.3z"
		/>
	<path fill="#7D1CB6" d="M21.6,12.1c0,1.7-0.5,3.3-1.4,4.8c-0.3,0.6-0.9,0.7-1.4,0.5c-0.5-0.2-0.8-0.7-0.7-1.2
		c0-0.2,0.1-0.3,0.2-0.5c1.4-2.5,1.4-4.9,0-7.3C18,7.7,18.1,7,18.6,6.7c0.6-0.4,1.2-0.2,1.6,0.5C21.1,8.5,21.6,10.3,21.6,12.1z"/>
</g>
</svg>
