<?xml version="1.0" encoding="utf-8"?>
<!-- Generator: Adobe Illustrator 18.0.0, SVG Export Plug-In . SVG Version: 6.00 Build 0)  -->
<!DOCTYPE svg PUBLIC "-//W3C//DTD SVG 1.1//EN" "http://www.w3.org/Graphics/SVG/1.1/DTD/svg11.dtd">
<svg version="1.1" id="Layer_1" xmlns="http://www.w3.org/2000/svg" xmlns:xlink="http://www.w3.org/1999/xlink" x="0px" y="0px"
	 width="215.8px" height="335.8px" viewBox="0 0 215.8 335.8" enable-background="new 0 0 215.8 335.8" xml:space="preserve">
<path fill="#7D1CB6" d="M119,185.7c0.2,1.4,0.4,2.5,0.4,3.6c0.2,6.1,0.6,12.2,0.4,18.2c-0.3,7.8-1.6,15.4-4.2,22.8
	c-1.9,5.5-4.6,10.5-8.3,15.1c-3.6,4.6-8.1,8.1-13.2,11.1c-2.6,1.5-5.1,3.2-7.7,4.7c-0.2,0.1-0.5,0.2-0.9,0.4
	c1.9-14.2,3.1-28.2,0.3-42.5c-1,2.2-1.8,4.1-2.7,5.9c-2,3.9-3.8,7.8-6,11.5c-3,5-6.4,9.9-9.6,14.7c-2.1,3.1-4.9,5.7-6.4,9.3
	c-1.1,2.6-1.9,5.3-2.1,8.1c-0.1,2-0.4,4-0.2,5.9c0.4,3.6,0.9,7.2,1.7,10.8c0.8,3.4,1.8,6.8,3.1,10c1.6,4,3.2,8,5.3,11.7
	c3.1,5.7,6.7,11.1,10.1,16.6c1.6,2.5,3.2,5.1,4.9,7.8c-2-1-3.7-1.9-5.4-2.9c-3-1.6-6.1-3.2-9.1-4.9c-5.3-3-10.7-5.9-15.5-9.7
	c-3.5-2.8-7-5.5-10.4-8.3c-1.5-1.2-2.9-2.6-4.3-4c-2.2-2.2-4.6-4.4-6.7-6.7c-2.9-3.2-5.6-6.5-8.2-9.9c-2.3-3-4.6-6.1-6.6-9.3
	c-3.6-5.6-6.8-11.4-9.2-17.7c-1.5-4.1-3.1-8.1-4.3-12.3c-1.1-3.8-2-7.7-2.6-11.6c-0.6-3.8-1-7.7-1.2-11.5c-0.2-3.9-0.4-7.7-0.2-11.6
	c0.3-4.7,1-9.5,1.6-14.2c1.1-8.1,3.3-15.9,6-23.6c1.6-4.6,3.7-9,5.5-13.6c1.7-4.1,3.4-8.2,4.9-12.4c2.3-6.8,4.5-13.6,6.4-20.5
	c1.2-4.2,1.8-8.6,2.6-12.8c0.9-4.4,1.1-8.9,0.9-13.3c-0.1-3.1-0.6-6.2-2.1-9.1c-1.6-3-2.9-6.1-4.5-9.5c4.9,1.2,9.7,2.1,14.3,3.5
	c4.3,1.3,8,3.9,11.4,6.9c3.3,3,6.1,6.5,8.2,10.4c2.1,3.9,3.6,8.1,4.4,12.4c0.5,2.7,0.8,5.5,1.2,8.3c0.3-0.8,0.7-1.6,1-2.5
	c1.4-4.1,3-8.2,4.3-12.4c2.2-7.3,4.2-14.6,6.2-21.9c1.2-4.4,2.4-8.9,3.4-13.4c1.4-6,2.6-12,3.8-18c0.9-4.6,1.7-9.2,2.4-13.9
	c0.4-2.7,0.6-5.4,0.7-8.1c0.2-3.1,0.5-6.2,0.4-9.3c-0.1-2.9-0.6-5.7-1-8.5c-0.6-3.9-1.4-7.7-2.1-11.5c-0.2-1.3-0.5-2.6-0.8-4.2
	c1.3,1.2,2.5,2.2,3.6,3.2c2.4,2.3,4.8,4.6,7.1,6.9c3.9,3.8,7.8,7.5,11.6,11.4c3.5,3.6,6.7,7.4,10.1,11.2c2.5,2.8,4.9,5.7,7.3,8.5
	c1.4,1.7,2.7,3.4,3.9,5.1c2.7,3.6,5.5,7.3,8.1,11c2.6,3.7,5.2,7.5,7.5,11.3c3,4.9,6,9.9,8.7,15c2.8,5.3,5.3,10.8,7.7,16.3
	c1.4,3.2,2.4,6.6,3.5,9.9c0.1,0.2,0.2,0.3,0.5,0.5c0.6-3.9,1.3-7.7,1.9-11.6c0.7-4.6,1-9.3,1-14c0-4.4,0-8.9-0.7-13.3
	c-0.4-2.9-0.6-5.8-1-8.7c-0.4-3.5-1-7-1.4-10.5c-0.2-1.2-0.2-2.4-0.4-3.9c1.2,1.6,2.3,3,3.3,4.5c4.9,7,9.9,13.9,14.7,21
	c2.6,3.8,4.8,7.9,7.1,11.9c2.1,3.6,4.1,7.2,5.9,11c2.4,4.9,4.7,9.8,6.9,14.7c2.3,5.3,4.6,10.7,6.5,16.2c2.2,6.3,4.3,12.6,6.1,19.1
	c1.5,5.4,2.6,11,3.7,16.6c0.8,3.8,1.4,7.7,1.9,11.6c0.4,2.9,0.6,5.8,0.7,8.7c0.2,5.9,0.5,11.8,0.4,17.6c0,4-0.5,8-0.9,12
	c-0.4,3.4-0.8,6.9-1.5,10.2c-0.9,4.3-1.9,8.5-3.1,12.7c-1.1,3.9-2.3,7.9-3.9,11.6c-2.1,5-4.3,9.9-6.9,14.6c-2.4,4.5-5.1,8.8-7.9,13
	c-2.2,3.2-4.7,6.2-7.1,9.3c-4,5.2-8.7,9.8-13.4,14.3c-2.8,2.7-5.8,5.1-8.8,7.6c-5.2,4.5-10.9,8.5-16.6,12.3
	c-4.7,3.1-9.6,6.1-14.3,9.2c-3.6,2.3-7.1,4.6-10.6,6.9c-0.2,0.2-0.5,0.3-1,0.6c3.3-5,6.5-9.6,9.5-14.4c3.4-5.3,6.9-10.5,9.9-15.9
	c2.3-4.3,4.2-8.9,5.8-13.5c2.1-5.8,3.7-11.7,4.4-17.8c0.5-3.8,0.8-7.7,1.2-11.5c0.1-1.5,0.2-3.1,0.2-4.6c0-5.3-0.5-10.5-1.4-15.7
	c-0.9-5.3-2.2-10.5-4-15.5c-2-5.6-4.5-11-7.5-16.3c-3-5.2-6.4-10.1-10-14.9c-1.9-2.4-4.1-4.6-6.1-6.9
	C120.9,187.9,120,186.9,119,185.7z M40.4,102.9c-0.5,4.9-0.8,9.8-1.6,14.6c-0.9,5.3-2.1,10.6-3.4,15.8c-1,4-2.5,8-3.7,11.9
	c-2.7,8.8-6.4,17.2-10,25.6c-2.5,6-4.6,12.1-6,18.4c-1,4.2-1.7,8.5-2.4,12.8c-0.9,4.9-1.1,9.8-1.2,14.7c0,2.8,0.2,5.7,0.5,8.5
	c0.2,2.9,0.4,5.8,1,8.7c0.8,4,1.8,8.1,3,12c2.3,7.8,5.8,15.1,10,22c2,3.3,4.1,6.5,6.5,9.5c2.5,3.3,5.2,6.4,8,9.5
	c2.3,2.6,4.9,4.9,7.3,7.4c0.9,0.9,1.9,1.7,3,2.7c-0.7-2.4-1.4-4.5-2-6.6c-1.8-6.6-2.9-13.2-2.6-20.1c0.2-3,0.5-6,1.3-9
	c1-4,2.6-7.9,5.1-11.2c2.5-3.3,5-6.6,7.3-9.9c4.6-6.5,8.5-13.3,11.7-20.5c1.4-3,2.8-6,4-9.1c1.8-5.1,3.4-10.2,5.1-15.3
	c0.8-2.4,1.4-4.9,2.1-7.5c1.7,2.5,3.3,4.9,4.9,7.2c3,4.1,5.6,8.4,7.2,13.2c2.8,8.3,3.8,16.9,4.1,25.6c0,0.5,0,0.9,0,1.4
	c0.8-0.9,1.4-1.9,1.9-2.8c1.9-3.2,3.1-6.8,4-10.3c1.6-5.8,2.2-11.8,2.4-17.8c0.1-3.6-0.2-7.2-0.5-10.8c-0.3-3.6-0.7-7.2-1.2-10.8
	c-0.5-3.3-1.1-6.6-1.9-9.9c-1.1-4.7-2.5-9.4-3.8-14.1c-0.5-1.9-1-3.9-1.6-5.8c1.5,0.9,2.8,1.9,4,3c2.2,1.9,4.4,3.8,6.6,5.6
	c2.9,2.4,6,4.7,8.8,7.2c3.4,3.1,6.7,6.3,9.9,9.6c2.2,2.3,4.4,4.6,6.4,7.2c3.4,4.3,6.8,8.6,9.8,13.2c2.4,3.5,4.4,7.3,6.3,11.1
	c2,4,3.8,8.2,5.4,12.4c2.5,6.7,4.3,13.6,5.1,20.8c0.5,4.8,0.9,9.7,1.2,14.5c0.1,2.8-0.2,5.6-0.4,8.4c-0.4,4-0.7,8.1-1.5,12
	c-0.8,4.4-2,8.8-3.1,13.2c-0.4,1.8-1.1,3.5-1.7,5.4c0.2,0,0.4,0,0.4-0.1c2.5-2.2,5.1-4.4,7.4-6.7c3.3-3.4,6.6-6.8,9.7-10.4
	c3-3.4,5.9-7,8.5-10.7c4.8-6.9,9-14.2,12.1-22.1c2.2-5.6,4-11.2,5.7-17c1.7-5.8,2.7-11.7,3.2-17.7c0.3-4.3,0.7-8.6,0.9-12.9
	c0.1-2.2-0.1-4.4-0.2-6.7c-0.2-3.8-0.4-7.7-0.7-11.5c-0.2-2.9-0.5-5.8-1-8.7c-0.8-4.7-1.8-9.4-2.8-14c-1.1-4.9-2.4-9.7-3.8-14.5
	c-1.5-5-3.2-9.9-5-14.7c-2.5-6.4-5.2-12.8-8-19.1c-2-4.4-4.2-8.6-6.4-12.9c-0.6-1.2-1.3-2.2-2-3.5c-0.1,1.2-0.2,2.2-0.4,3.1
	c-0.5,3.7-0.7,7.5-1.5,11.2c-1.2,5.6-2.7,11.2-4.2,16.8c-1.9,7-5.1,13.6-8.2,20.1c-1.7,3.6-3.4,7.2-5.2,10.8c-0.5,1-1,1.9-1.6,3.1
	c-0.2-2.8-0.4-5.2-0.6-7.6c-0.3-4.2-0.4-8.4-0.7-12.6c-0.2-3.4-0.5-6.8-1-10.2c-0.6-4.9-1.7-9.7-3.3-14.3c-1.8-4.9-3.7-9.8-5.6-14.6
	c-2.7-6.6-6.3-12.8-9.9-18.9c-2.7-4.6-5.8-9.1-8.8-13.6c-2-2.9-4.1-5.8-6.2-8.6c-1.5-2.1-3.2-4.1-4.8-6.1c-2.7-3.4-5.5-6.7-8.2-10
	c-1.3-1.5-2.5-3-3.8-4.5c-1.5-1.6-3-3.2-4.6-5c-0.1,1.2-0.3,2.1-0.4,3.1c-0.3,2.6-0.4,5.2-0.8,7.8c-0.5,3.8-1.2,7.7-1.9,11.5
	c-0.9,5.1-1.8,10.2-3,15.3c-1.1,5.1-2.4,10.3-3.8,15.3c-2.2,8.1-4.4,16.2-6.7,24.2c-1.5,5.2-3.2,10.3-5.1,15.3
	c-2.5,6.4-5.3,12.7-8.8,18.6c-2.7,4.6-5.5,9.2-8.2,13.8c-2.5,4.2-5,8.4-7.5,12.6c-0.9,1.5-1.8,2.9-2.9,4.7c0-0.6-0.1-0.8,0-1
	c0.2-3.4,0.5-6.8,0.7-10.2c0.2-2.8,0.3-5.5,0.5-8.3c0.2-4.3,0.5-8.6,0.7-12.9c0.1-2.4,0.2-4.8,0.3-7.1c0.1-1.5,0.1-3,0.3-4.5
	c0.5-3.9,0.4-7.8-0.5-11.7c-0.6-2.8-1.4-5.6-2.5-8.3C44.4,107.7,42.5,105.1,40.4,102.9z"/>
</svg>
