<?xml version="1.0" encoding="utf-8"?>
<!-- Generator: Adobe Illustrator 18.0.0, SVG Export Plug-In . SVG Version: 6.00 Build 0)  -->
<!DOCTYPE svg PUBLIC "-//W3C//DTD SVG 1.1//EN" "http://www.w3.org/Graphics/SVG/1.1/DTD/svg11.dtd">
<svg version="1.1" id="Layer_1" xmlns="http://www.w3.org/2000/svg" xmlns:xlink="http://www.w3.org/1999/xlink" x="0px" y="0px"
	 width="28.4px" height="32.1px" viewBox="0 0 28.4 32.1" enable-background="new 0 0 28.4 32.1" xml:space="preserve">
<path fill="#7D1CB6" d="M2.8,31.6l5.2-7l-1.1,0c-3.8,0-6.9-2.8-6.9-6.3V6.3C0,2.8,3,0,6.8,0l14.6,0.3c3.8,0.1,6.9,2.9,6.9,6.3
	l0.1,11.2c0,3.4-3,6.2-6.9,6.3l-5.1,0.1L3.2,32.1L2.8,31.6z M7,28.5l9.6-5.8l4.3-0.2c3.2-0.1,5.8-2.4,5.7-5.2L26.5,7.1
	C26.5,4.3,24,2,20.8,2L7.5,1.6l-0.2,0c-3,0-5.6,2.4-5.6,5.2v11c0,1.3,0.6,2.6,1.6,3.6c1.1,1,2.4,1.5,3.9,1.5c0.1,0,0.1,0,0.2,0
	l3.8-0.2L7,28.5z"/>
</svg>
