<?xml version="1.0" encoding="utf-8"?>
<!-- Generator: Adobe Illustrator 18.0.0, SVG Export Plug-In . SVG Version: 6.00 Build 0)  -->
<!DOCTYPE svg PUBLIC "-//W3C//DTD SVG 1.1//EN" "http://www.w3.org/Graphics/SVG/1.1/DTD/svg11.dtd">
<svg version="1.1" id="Layer_1" xmlns="http://www.w3.org/2000/svg" xmlns:xlink="http://www.w3.org/1999/xlink" x="0px" y="0px"
	 width="38.4px" height="26.4px" viewBox="0 0 38.4 26.4" enable-background="new 0 0 38.4 26.4" xml:space="preserve">
<g>
	<path fill="none" stroke="#7D1CB6" stroke-width="1.8177" stroke-miterlimit="10" d="M37.5,25.5c-0.4,0-0.6,0-0.9,0
		c-11.6,0-23.2,0-34.8,0c-0.9,0-0.9,0-0.9-0.9c0-7.6,0-15.2,0-22.8c0-0.9,0-0.9,0.9-0.9c11.6,0,23.2,0,34.9,0c0.7,0,0.8,0.2,0.8,0.8
		c0,7.6,0,15.3,0,22.9C37.5,24.9,37.5,25.1,37.5,25.5z"/>
	<path fill="none" stroke="#7D1CB6" stroke-width="1.8177" stroke-miterlimit="10" d="M15.1,19.7c0-4.2,0-8.2,0-12.4
		c3.6,2.1,7,4.1,10.6,6.2C22.2,15.6,18.7,17.6,15.1,19.7z"/>
</g>
</svg>
