<?xml version="1.0" encoding="utf-8"?>
<!-- Generator: Adobe Illustrator 18.0.0, SVG Export Plug-In . SVG Version: 6.00 Build 0)  -->
<!DOCTYPE svg PUBLIC "-//W3C//DTD SVG 1.1//EN" "http://www.w3.org/Graphics/SVG/1.1/DTD/svg11.dtd">
<svg version="1.1" id="Layer_1" xmlns="http://www.w3.org/2000/svg" xmlns:xlink="http://www.w3.org/1999/xlink" x="0px" y="0px"
	 width="413.8px" height="401.8px" viewBox="0 0 413.8 401.8" enable-background="new 0 0 413.8 401.8" xml:space="preserve">
<path fill="#7D1CB6" d="M152.8,373.5c77.8,0,154.9,0,232.4,0c0-114.9,0-229.6,0-344.8c-77.2,0-154.6,0-232.4,0c0,2,0,3.8,0,5.6
	c0,29,0.1,58,0.1,87c0,11.1-10.5,18-20,13.4c-5.2-2.6-8.1-7-8.1-12.8c-0.1-36-0.2-72-0.1-108c0-8.4,6.4-13.8,15.7-13.8
	c19.8,0,39.7,0,59.5,0c65.3,0,130.7,0,196,0c12.7,0,17.8,5.1,17.8,17.9c0,121.5,0,243,0,364.5c0,1.3,0,2.7,0,4
	c-0.2,9.9-5.7,15.4-15.6,15.4c-40.8,0-81.7,0-122.5,0c-44.8,0-89.7,0-134.5,0c-11.2,0-16.4-5.3-16.4-16.5c0-34.7,0-69.3,0-104
	c0-7.9,5.2-13.7,12.4-14.5c7.2-0.7,13.8,3.8,15.3,10.8c0.5,2.2,0.4,4.6,0.4,7c0,28,0,56,0,84C152.8,370,152.8,371.5,152.8,373.5z"/>
<path fill="#7D1CB6" d="M290.2,185.2c-1.6-1.2-3.4-2.1-4.8-3.5c-24.3-24.2-48.5-48.5-72.9-72.7c-4.3-4.3-6-9.2-4.4-15
	c1.5-5.2,5.1-8.5,10.4-9.7c5.8-1.3,10.3,1,14.3,5.1c26.3,26.4,52.8,52.8,79.1,79.2c7.2,7.2,14.4,14.3,21.5,21.6
	c7,7.1,7.1,14.8,0,21.9c-33.7,33.7-67.3,67.4-101.1,101.1c-6.4,6.4-15.1,6.8-20.9,1c-5.8-5.7-5.4-14.4,1-20.9
	c24.4-24.4,48.7-48.8,73.2-73.1c1.3-1.3,3-2.1,4.6-3.1c-0.3-0.6-0.7-1.3-1-1.9c-1.7,0-3.4,0-5.1,0c-89.1,0-178.3,0-267.4,0
	c-6.7,0-12.2-1.6-15.3-8c-4.7-9.7,2.3-20.1,13.7-20.2c26.2-0.1,52.3,0,78.5,0c63.8,0,127.6,0,191.4,0c1.3,0,2.6,0,3.9,0
	C289.4,186.3,289.8,185.8,290.2,185.2z"/>
</svg>
