<?xml version="1.0" encoding="utf-8"?>
<!-- Generator: Adobe Illustrator 18.0.0, SVG Export Plug-In . SVG Version: 6.00 Build 0)  -->
<!DOCTYPE svg PUBLIC "-//W3C//DTD SVG 1.1//EN" "http://www.w3.org/Graphics/SVG/1.1/DTD/svg11.dtd">
<svg version="1.1" id="Layer_1" xmlns="http://www.w3.org/2000/svg" xmlns:xlink="http://www.w3.org/1999/xlink" x="0px" y="0px"
	 width="260.2px" height="334.2px" viewBox="0 0 260.2 334.2" enable-background="new 0 0 260.2 334.2" xml:space="preserve">
<path fill="#7D1CB6" d="M131.6,0c1.8,2.1,3.8,3.9,5.2,6.2c2.3,3.9,4,8.2,6.3,12.2c0.8,1.3,2.4,2.6,3.9,2.8c4.9,1,9.9,1.5,14.9,2.2
	c3,0.4,5.6,1.6,6.6,4.8c1,3.2-0.3,5.6-2.5,7.7c-3.7,3.6-7.3,7.2-11.1,10.7c-1.3,1.2-1.9,2.4-1.5,4.3c1.1,5.1,1.7,10.3,2.6,15.5
	c0.5,3-0.2,5.5-2.7,7.4c-2.4,1.8-5,1.5-7.6,0.2c-2.3-1.2-4.7-2.4-7.4-3.2c2.3,2.9,4.5,5.9,6.8,8.8c18.6,23.8,37.2,47.6,55.7,71.4
	c4.6,5.9,3.2,10.6-4.1,12.8c-5.1,1.5-10.3,2.9-15.8,4.4c1.5,1.9,3,3.7,4.4,5.5c15.8,19.2,31.6,38.3,47.4,57.5
	c4.1,5,3.6,9.3-2.1,12.3c-6.4,3.3-13.1,5.9-19.8,8.9c2.7,2.9,5.6,6.1,8.5,9.3c12.6,13.8,25.3,27.6,37.9,41.4
	c4.5,4.9,3.8,9.5-2.3,12.6c-11.3,5.8-23.5,8.9-35.8,11.5c-19.6,4-39.4,5.8-59.3,6.7c-2.1,0.1-4.2,0.4-6.2,0.6c-14.7,0-29.4,0-44.1,0
	c-6.1-0.4-12.1-0.9-18.2-1.3c-21.8-1.5-43.5-4-64.6-9.9c-7-2-14-4.5-20.7-7.3c-7-2.9-7.9-7.6-2.8-13.2
	c14.1-15.5,28.2-30.9,42.3-46.4c1.3-1.5,2.6-2.9,4.2-4.7c-3.7-1.3-6.9-2.3-10.1-3.5c-3.5-1.4-7-2.9-10.3-4.6
	c-5.3-2.7-6.1-7.2-2.4-11.8c16.7-20.4,33.5-40.8,50.3-61.2c0.6-0.7,1.1-1.4,2-2.5c-3.7-1-7.1-1.8-10.4-2.7c-2.3-0.6-4.5-1.2-6.7-1.9
	c-5.5-1.9-7-6.7-3.4-11.4c8.6-11.1,17.2-22.2,25.8-33.2c12.2-15.6,24.4-31.3,36.5-46.9c0.4-0.6,0.8-1.2,0.8-2.2
	c-2.7,1.4-5.4,2.8-8.1,4.3c-2.6,1.4-5.3,1.9-7.8,0.1c-2.6-1.9-3.3-4.5-2.7-7.7c1-5.1,1.8-10.3,2.5-15.5c0.2-1.2-0.4-2.8-1.2-3.7
	c-3.6-3.8-7.5-7.3-11.2-11c-2.2-2.1-3.7-4.5-2.6-7.7c1.1-3.3,3.7-4.5,6.9-4.9c5-0.6,9.9-1.2,14.9-2.2c1.3-0.2,2.8-1.3,3.4-2.5
	c2.4-4.3,4.3-8.8,6.7-13.1c1.2-2.1,3.2-3.8,4.9-5.7C128.9,0,130.3,0,131.6,0z M18.3,305.8c1.4,0.7,2.3,1.3,3.3,1.7
	c2,0.8,4,1.5,6,2.1c20.7,5.9,41.8,8.5,63.2,10c27.1,1.9,54.3,1.9,81.4,0c19.2-1.3,38.3-3.7,57-8.7c4.3-1.1,8.4-2.9,13.1-4.6
	c-15.7-17.1-30.8-33.5-45.9-49.9c-0.6-0.7-2.2-0.9-3.3-0.8c-12.7,1.3-25.4,3.3-38.2,4c-29.2,1.7-58.3,0.8-87.2-4.4
	c-2.2-0.4-3.5,0.2-4.8,1.7c-3.4,3.9-7,7.7-10.6,11.6C41.2,280.8,29.9,293.1,18.3,305.8z M218.4,235.1c-1.3-1.7-1.9-2.6-2.6-3.4
	c-15.9-19.4-31.8-38.7-47.6-58.2c-1.7-2.1-3.3-2.6-5.9-2.3c-8.1,1-16.2,2.4-24.2,2.2c-13.7-0.3-27.3-1.5-40.9-2.5
	c-2.1-0.2-3.4,0.2-4.8,1.9c-8,10-16.2,19.8-24.3,29.8c-8.4,10.3-16.9,20.6-25.7,31.5c2.9,1.2,5.4,2.4,8,3.2
	c15.5,4.6,31.5,7,47.6,8.3c22.3,1.8,44.7,2,67,0c11.6-1.1,23.1-3,34.6-5C205.8,239.4,211.8,237.1,218.4,235.1z M74.8,152.7
	c37.2,9.9,73.6,10.6,110.5,0c-18.6-23.8-36.9-47.1-55.4-70.6C111.5,105.7,93.4,129,74.8,152.7z M118.7,56c7.4-5.8,14.4-5.7,21.9,0
	c-3.4-9.1-0.7-15.7,7.1-21c-9.7,0.6-15.4-3.7-18.2-12.8c-2.4,9.5-8.5,13.2-17.9,12.9C119.6,40.2,121.9,46.9,118.7,56z"/>
</svg>
