<?xml version="1.0" encoding="utf-8"?>
<!-- Generator: Adobe Illustrator 18.0.0, SVG Export Plug-In . SVG Version: 6.00 Build 0)  -->
<!DOCTYPE svg PUBLIC "-//W3C//DTD SVG 1.1//EN" "http://www.w3.org/Graphics/SVG/1.1/DTD/svg11.dtd">
<svg version="1.1" id="Layer_1" xmlns="http://www.w3.org/2000/svg" xmlns:xlink="http://www.w3.org/1999/xlink" x="0px" y="0px"
	 width="27.6px" height="32.3px" viewBox="0 0 27.6 32.3" enable-background="new 0 0 27.6 32.3" xml:space="preserve">
<g>
	<path fill="#7D1CB6" d="M7.4,17.5c0,6.3,0,5.9,0,12.1c2.5-0.8,5.3-3.4,5.2-8.6c0.5,2,0.5,3.9-0.2,5.8c-0.8,2-2.4,3.2-4.1,4.3
		c-0.7,0.5-1.4,0.8-2.2,1.3C6.1,32,6,31.8,6,31.6c0-7.2,0-7.8,0-15c0-1.4,0.7-2.6,1.7-3.6c1.7-1.7,3.7-2.7,6.1-2.9
		c0.5,0,1,0,1.5,0.1c1.8,0.3,2.5,1.6,1.8,3.3c-0.5,1.5-1.7,2.4-2.9,3.4c-1.1,0.9-2.5,1.4-3.9,1.6c-1,0.1-1.9-0.1-2.6-0.7
		C7.7,17.7,7.6,17.6,7.4,17.5z M13,11.3c-2.1,0-4.3,2.3-4.3,4.4c0,1.1,0.8,1.8,1.9,1.7c2-0.3,3.8-2.1,4.1-4.1
		C14.9,12.2,14.2,11.3,13,11.3z"/>
	<path fill="none" stroke="#7D1CB6" stroke-width="0.9997" stroke-miterlimit="10" d="M19.3,3.1c0.8-0.3,1.6-0.6,2.4-0.9
		c0,0.6,0,1.1,0,1.7c0,0.5,0.2,0.6,0.6,0.5c0.7-0.1,1.5-0.1,2.3,0c-0.4,0.4-0.7,0.8-1.1,1.2c-1.7,1.6-3.5,3-5.6,3.9
		c-0.4,0.2-0.9,0.3-1.4,0.4c-0.9,0.1-1.2-0.2-1.1-1.1c0-0.5,0.1-1.1,0.3-1.5c0.9-1.9,1.8-3.8,2.8-5.7c0.1-0.1,0.2-0.2,0.3-0.4
		C18.9,1.8,19,2.4,19.3,3.1z"/>
	<path fill="none" stroke="#7D1CB6" stroke-width="0.9997" stroke-miterlimit="10" d="M26.1,9c-0.4,0.5-0.7,1.1-1.1,1.6
		c0.5,0.3,0.9,0.6,1.4,1c-0.4,0.5-0.8,0.9-1.3,1.4c0.4,0.4,0.9,0.7,1.4,1.1c-1.8,0.4-3.4,0.7-5.1,0.6c-0.7,0-1.4,0-2-0.2
		c-0.4-0.1-0.9-0.4-1.1-0.7c-0.3-0.5,0.2-0.9,0.5-1.2c1.2-1.1,2.5-2,4-2.6c1.1-0.5,2.1-0.8,3.2-1.3C26,8.9,26.1,9,26.1,9z"/>
	<path fill="none" stroke="#7D1CB6" stroke-width="0.9997" stroke-miterlimit="10" d="M9.9,3.3c0.3,0.2,0.5,0.3,0.7,0.5
		C10.8,4,11,4.1,11.2,4.2c0.5-0.6,1-1.1,1.6-1.7c0,0.8,0,1.4-0.1,2c-0.1,1.5-0.3,3-1,4.4c-0.8,1.8-1.9,1.9-3.1,0.3
		c-0.8-1.1-1.9-3.4-2-4.6C7.2,4.7,7.6,4.9,8,5C8.4,5.1,8.6,5,8.8,4.7C9.2,4.3,9.5,3.8,9.9,3.3z"/>
	<path fill="none" stroke="#7D1CB6" stroke-width="0.9997" stroke-miterlimit="10" d="M23.1,17.5c-0.5,0.3-0.8,0.5-1.2,0.7
		c-0.5,0.2-0.6,0.5-0.5,1c0.2,0.6,0,0.8-0.6,0.9c-1.1,0.1-1.5,0.8-1.3,1.9c-0.1,0-0.1,0-0.2,0c-0.7-0.7-1.4-1.4-2-2.1
		c-0.5-0.6-0.9-1.2-1.2-1.8c-0.4-0.9-0.2-1.4,0.8-1.6c1.6-0.3,3.1,0,4.7,0.4C22,17,22.4,17.3,23.1,17.5z"/>
	<path fill="none" stroke="#7D1CB6" stroke-width="0.9997" stroke-miterlimit="10" d="M0.6,11.9c0.3-0.1,0.7-0.3,1-0.4
		c0.4-0.1,0.6-0.3,0.6-0.8c0-1,0-1.1,1-1.3C3.6,9.3,3.9,9,3.8,8.5c0-0.3,0-0.7,0-1.1C4,7.5,4.2,7.6,4.3,7.7c1.4,1.1,2.4,2.5,2.9,4.3
		c0.2,0.7,0,1-0.7,1.2c-1.3,0.3-2.5-0.1-3.8-0.4c-0.8-0.2-1.5-0.5-2.3-0.7C0.6,12,0.6,11.9,0.6,11.9z"/>
</g>
</svg>
