<?xml version="1.0" encoding="utf-8"?>
<!-- Generator: Adobe Illustrator 18.0.0, SVG Export Plug-In . SVG Version: 6.00 Build 0)  -->
<!DOCTYPE svg PUBLIC "-//W3C//DTD SVG 1.1//EN" "http://www.w3.org/Graphics/SVG/1.1/DTD/svg11.dtd">
<svg version="1.1" id="Layer_1" xmlns="http://www.w3.org/2000/svg" xmlns:xlink="http://www.w3.org/1999/xlink" x="0px" y="0px"
	 width="37.3px" height="31.2px" viewBox="0 0 37.3 31.2" enable-background="new 0 0 37.3 31.2" xml:space="preserve">
<g>
	<path fill="none" stroke="#7D1CB6" stroke-width="1.4108" stroke-miterlimit="10" d="M18.6,30.5c-5.7,0-11.4,0-17.1,0
		c-0.8,0-0.8,0-0.8-0.7c0,0,0,0,0-0.1c0-1,0-1,1.2-1.1c0.4,0,0.6-0.1,0.5-0.5c0,0,0,0,0-0.1c0-0.4-0.1-0.9,0.1-1.1
		c0.2-0.2,0.8-0.1,1.2-0.2c0.2,0,0.3-0.2,0.4-0.3c0,0,0-0.1,0-0.2c0-1.2,0-1.2,1.5-1.2c8.9,0,17.7,0,26.6,0c1,0,1,0,1,0.8
		c0,0.1,0,0.2,0,0.3c-0.1,0.5,0.2,0.7,0.8,0.7c0.9,0,0.9,0,0.9,0.8c0,0.1,0,0.1,0,0.2c0,0.7,0,0.7,0.8,0.7c0.9,0,0.9,0,0.9,0.8
		c0,1.2,0.2,1.1-1.2,1.1C29.8,30.5,24.2,30.5,18.6,30.5z"/>
	<path fill="none" stroke="#7D1CB6" stroke-width="1.4108" stroke-miterlimit="10" d="M18.6,8.6c-5.1,0-10.1,0-15.2,0
		c-0.3,0-0.8,0.2-0.8-0.3c0-0.4-0.1-0.8,0.5-1.1c5-2,10.1-4.1,15.1-6.1C18.5,1,18.8,1,19,1.1c5,2,10.1,4.1,15.1,6.1
		c0.5,0.2,0.7,0.7,0.5,1.2c0,0.1-0.2,0.2-0.3,0.2c-0.2,0-0.4,0-0.5,0C28.7,8.6,23.7,8.6,18.6,8.6z"/>
	<path fill="none" stroke="#7D1CB6" stroke-width="1.4108" stroke-miterlimit="10" d="M13.5,18c0.1-2.1,0.2-4.2,0.2-6.3
		c0-0.4,0.2-0.5,0.6-0.5c0.6,0,1.2,0,1.7,0c0.6,0,0.7,0.2,0.7,0.6c0,2,0.1,4,0.2,6c0.1,2.1,0.1,4.2,0.2,6.3c0,0.5-0.2,0.6-0.7,0.6
		c-0.9,0-1.8,0-2.6,0c-0.4,0-0.5-0.1-0.5-0.5C13.4,22.2,13.4,20.1,13.5,18C13.5,18,13.5,18,13.5,18z"/>
	<path fill="none" stroke="#7D1CB6" stroke-width="1.4108" stroke-miterlimit="10" d="M27.3,11.2c0.9,0,1.8,0,2.7,0
		c0.1,0,0.3,0.2,0.3,0.4c0.1,0.5,0,1,0.1,1.6c0.1,3.6,0.2,7.3,0.4,10.9c0,0.7,0,0.7-0.8,0.7c-0.8,0-1.6,0-2.5,0
		c-0.4,0-0.6-0.1-0.6-0.5c0.1-4,0.2-8,0.3-12C27.3,11.9,27.3,11.6,27.3,11.2z"/>
	<path fill="none" stroke="#7D1CB6" stroke-width="1.4108" stroke-miterlimit="10" d="M20.5,18c0-2,0-4.1,0-6.1c0-0.8,0-0.8,0.9-0.8
		c0.5,0,0.9,0,1.4,0c0.8,0,0.8,0,0.8,0.7c0,0.7,0.1,1.4,0.1,2.1c0.1,3.4,0.2,6.9,0.3,10.3c0,0.3-0.2,0.5-0.5,0.5c-0.9,0-1.8,0-2.8,0
		c-0.5,0-0.6-0.2-0.6-0.5c0.1-2.1,0.1-4.2,0.2-6.2C20.4,18,20.4,18,20.5,18z"/>
	<path fill="none" stroke="#7D1CB6" stroke-width="1.4108" stroke-miterlimit="10" d="M6.9,18.1c0-2.1,0-4.1,0-6.2
		c0-0.5,0.2-0.7,0.8-0.7c0.6,0,1.2,0,1.7,0c0.4,0,0.5,0.1,0.6,0.4c0,0.7,0.1,1.4,0.1,2.1c0.1,3.5,0.2,7,0.3,10.5
		c0,0.3-0.1,0.5-0.5,0.5c-0.9,0-1.8,0-2.8,0c-0.5,0-0.6-0.2-0.6-0.6c0.1-2.1,0.1-4.1,0.2-6.2C6.7,18,6.8,18.1,6.9,18.1z"/>
</g>
</svg>
