<?xml version="1.0" encoding="utf-8"?>
<!-- Generator: Adobe Illustrator 18.0.0, SVG Export Plug-In . SVG Version: 6.00 Build 0)  -->
<!DOCTYPE svg PUBLIC "-//W3C//DTD SVG 1.1//EN" "http://www.w3.org/Graphics/SVG/1.1/DTD/svg11.dtd">
<svg version="1.1" id="Layer_1" xmlns="http://www.w3.org/2000/svg" xmlns:xlink="http://www.w3.org/1999/xlink" x="0px" y="0px"
	 width="32.2px" height="22.5px" viewBox="0 0 32.2 22.5" enable-background="new 0 0 32.2 22.5" xml:space="preserve">
<g>
	<path fill="none" stroke="#7D1CB6" stroke-width="1.8261" stroke-miterlimit="10" d="M11.1,2c2.3,0,4.5,0,6.8,0
		c2.1,0,3.3,1.1,3.4,3.3c0.1,3.9,0,7.9,0,11.8c0,2.2-1.1,3.3-3.3,3.3c-4.6,0-9.2,0-13.8,0c-2.2,0-3.2-1.1-3.2-3.3
		c0-3.9,0-7.9,0-11.8C1,3.1,2,2.1,4.2,2C6.5,2,8.8,2,11.1,2z"/>
	<path fill="none" stroke="#7D1CB6" stroke-width="1.8261" stroke-miterlimit="10" d="M31.3,20.5c-2.8-2.3-5.5-4.5-8-6.7
		c-0.4-0.4-0.3-1.3-0.4-2c-0.4-2.2,0.4-3.7,2.2-4.9c2.1-1.4,4-3.2,6.2-4.9C31.3,8.2,31.3,14.2,31.3,20.5z"/>
</g>
</svg>
