<?xml version="1.0" encoding="utf-8"?>
<!-- Generator: Adobe Illustrator 18.0.0, SVG Export Plug-In . SVG Version: 6.00 Build 0)  -->
<!DOCTYPE svg PUBLIC "-//W3C//DTD SVG 1.1//EN" "http://www.w3.org/Graphics/SVG/1.1/DTD/svg11.dtd">
<svg version="1.1" id="Layer_1" xmlns="http://www.w3.org/2000/svg" xmlns:xlink="http://www.w3.org/1999/xlink" x="0px" y="0px"
	 width="352.8px" height="333.3px" viewBox="0 0 352.8 333.3" enable-background="new 0 0 352.8 333.3" xml:space="preserve">
<path fill="#7D1CB6" d="M0,169.5c1.9-2.1,3.7-4.3,5.7-6.3c55.7-53.3,111.3-106.6,167-159.8c1.1-1.1,2.3-2.2,3.6-3.4
	c1.1,1,2,1.8,2.9,2.7c56.6,54.1,113.2,108.3,169.8,162.4c0.7,0.7,1.5,1.4,2.2,2.2c2.3,3.1,2.1,7-0.6,9.7c-2.6,2.6-6.4,2.9-9.4,0.7
	c-1.6-1.2-2.9-2.6-4.3-3.9C284.4,123.6,232,73.4,179.5,23.2c-0.9-0.9-1.8-1.7-3-2.9c-0.9,0.8-1.9,1.6-2.7,2.5
	C121.2,73.1,68.7,123.4,16.1,173.6c-0.6,0.6-1.2,1.1-1.7,1.7c-5.8,5.6-9.5,5.3-14.4-0.9C0,172.7,0,171.1,0,169.5z"/>
<path fill="#7D1CB6" d="M58.7,318.7c24.7,0,48.9,0,73.4,0c0-31.7,0-63.3,0-95.2c29.6,0,58.8,0,88.3,0c0,31.7,0,63.3,0,95.1
	c24.6,0,48.9,0,73.6,0c0-1.6,0-3.1,0-4.5c0-41.5,0-82.9,0-124.4c0-1.3,0-2.5,0.1-3.8c0.3-3.8,3.2-6.6,6.9-6.8
	c3.8-0.1,7.1,2.7,7.6,6.5c0.1,0.7,0.1,1.4,0.1,2.1c0,47.7,0,95.3,0,143c0,0.8,0,1.6,0,2.6c-34.3,0-68.3,0-102.8,0
	c0-31.6,0-63.2,0-95.1c-19.7,0-39.1,0-58.8,0c0,31.6,0,63.2,0,95.1c-34.4,0-68.5,0-102.8,0c-0.1-0.8-0.2-1.7-0.2-2.5
	c0-50.2,0-100.4,0-150.5c0-5.9,4.1-9.5,9.2-8.1c3.2,0.9,5.1,3,5.4,6.4c0.1,1.3,0.1,2.5,0.1,3.8c0,44,0,88,0,131.9
	C58.7,315.6,58.7,316.9,58.7,318.7z"/>
<path fill="#7D1CB6" d="M279.3,39.4c-4,0-7.4,0-10.8,0c-10.8,0-21.6,0-32.4,0c-5.1,0-8.1-2.8-8.1-7.3c0-4.4,3.2-7.3,8.2-7.3
	c18.4,0,36.8,0,55.1,0c0.8,0,1.6,0.1,2.6,0.2c0.1,1.1,0.2,2.1,0.2,3.1c0,17.9,0,35.8,0,53.7c0,1,0,2.1-0.2,3.1
	c-0.7,3.7-3.7,6.1-7.3,6.1c-3.6,0-6.5-2.5-7.1-6.2c-0.2-1.1-0.2-2.3-0.2-3.4c0-12.5,0-25,0-37.6C279.3,42.5,279.3,41.2,279.3,39.4z"
	/>
</svg>
