<?xml version="1.0" encoding="utf-8"?>
<!-- Generator: Adobe Illustrator 18.0.0, SVG Export Plug-In . SVG Version: 6.00 Build 0)  -->
<!DOCTYPE svg PUBLIC "-//W3C//DTD SVG 1.1//EN" "http://www.w3.org/Graphics/SVG/1.1/DTD/svg11.dtd">
<svg version="1.1" id="Layer_1" xmlns="http://www.w3.org/2000/svg" xmlns:xlink="http://www.w3.org/1999/xlink" x="0px" y="0px"
	 width="56.1px" height="56.1px" viewBox="0 0 56.1 56.1" enable-background="new 0 0 56.1 56.1" xml:space="preserve">
<circle fill="none" stroke="#FFFFFF" stroke-width="1.4173" stroke-miterlimit="10" cx="28" cy="28" r="27.3"/>
<path fill="#FFFFFF" d="M25.2,28.9c-1.2-1.7-1.8-3.4-1.8-5.2c0-4.3,3.1-7.9,7.3-8.5c5.5-0.8,10.4,3.8,9.8,9.3
	c-0.6,6.1-7.2,9.6-12.6,6.7c-0.6-0.3-1-0.1-1.3,0.6c-0.1,0.4-0.3,0.9-0.6,1.2c-2.3,2.4-4.7,4.7-7,7c-0.6,0.6-1.4,0.8-2.2,0.5
	c-0.8-0.3-1.2-0.9-1.3-1.7c-0.1-0.6,0.2-1.1,0.6-1.6c2.4-2.4,4.7-4.8,7.1-7.1c0.2-0.2,0.6-0.4,0.9-0.5
	C24.5,29.3,24.8,29.1,25.2,28.9z M37.6,23.6c0-3.1-2.5-5.6-5.6-5.6c-3.1,0-5.7,2.5-5.7,5.6c0,3.1,2.5,5.6,5.6,5.6
	C35.1,29.2,37.6,26.7,37.6,23.6z"/>
<g>
</g>
<g>
</g>
<g>
</g>
<g>
</g>
<g>
</g>
<g>
</g>
<g>
</g>
<g>
</g>
<g>
</g>
<g>
</g>
<g>
</g>
<g>
</g>
<g>
</g>
<g>
</g>
<g>
</g>
</svg>
