<?xml version="1.0" encoding="utf-8"?>
<!-- Generator: Adobe Illustrator 18.0.0, SVG Export Plug-In . SVG Version: 6.00 Build 0)  -->
<!DOCTYPE svg PUBLIC "-//W3C//DTD SVG 1.1//EN" "http://www.w3.org/Graphics/SVG/1.1/DTD/svg11.dtd">
<svg version="1.1" id="Layer_1" xmlns="http://www.w3.org/2000/svg" xmlns:xlink="http://www.w3.org/1999/xlink" x="0px" y="0px"
	 width="51px" height="44.2px" viewBox="0 0 51 44.2" enable-background="new 0 0 51 44.2" xml:space="preserve">
<g>
	<g>
		<text transform="matrix(1.1565 0 0 1 33.0368 36.7755)" fill="#FFFFFF" font-family="'Roboto-Regular'" font-size="27.4007">+</text>
	</g>
	<path fill="none" stroke="#FFFFFF" stroke-width="2.0402" stroke-miterlimit="10" d="M42,16.5c0-4.8,0-9.7,0-14.5
		c0-0.8-0.2-0.9-0.9-0.9C28.1,1,15,1,2,1C1,1,1,1,1,2c0,8.5,0,17.1,0,25.6c0,1,0,1,1,1c8.9,0,17.8,0,26.8,0 M17.7,7.2
		c4.2,2.4,8.3,4.8,12.5,7.3c-4.2,2.5-8.3,4.8-12.5,7.3C17.7,16.8,17.7,12.1,17.7,7.2z"/>
</g>
</svg>
