<?xml version="1.0" encoding="utf-8"?>
<!DOCTYPE svg PUBLIC "-//W3C//DTD SVG 1.1//EN" "http://www.w3.org/Graphics/SVG/1.1/DTD/svg11.dtd">
<svg version="1.1" id="Layer_1" xmlns="http://www.w3.org/2000/svg" xmlns:xlink="http://www.w3.org/1999/xlink" x="0px" y="0px"
	 width="197.8px" height="82.5px" viewBox="0 0 197.8 82.5" enable-background="new 0 0 197.8 82.5" xml:space="preserve">
<g id="logo_text">
	<path fill="#7D1CB6" d="M89.4,30.4V17.6h4.8c1,0,1.8,0.1,2.4,0.4c0.6,0.3,1.1,0.7,1.4,1.2c0.3,0.5,0.5,1.1,0.5,1.7
		c0,0.5-0.1,1.1-0.4,1.5c-0.3,0.5-0.7,0.9-1.3,1.2c0.8,0.2,1.4,0.6,1.8,1.2c0.4,0.5,0.6,1.2,0.6,1.9c0,0.6-0.1,1.2-0.4,1.7
		c-0.3,0.5-0.6,0.9-0.9,1.2s-0.8,0.5-1.4,0.6c-0.6,0.1-1.3,0.2-2.1,0.2H89.4z M91.1,23h2.8c0.8,0,1.3,0,1.6-0.1
		c0.4-0.1,0.8-0.3,1-0.6c0.2-0.3,0.3-0.7,0.3-1.1c0-0.4-0.1-0.8-0.3-1.1s-0.5-0.5-0.9-0.7c-0.4-0.1-1-0.2-1.9-0.2h-2.6V23z
		 M91.1,28.9h3.2c0.5,0,0.9,0,1.2-0.1c0.4-0.1,0.7-0.2,1-0.3c0.3-0.2,0.5-0.4,0.6-0.7c0.2-0.3,0.3-0.7,0.3-1.1
		c0-0.5-0.1-0.9-0.4-1.2c-0.2-0.4-0.6-0.6-1-0.7c-0.4-0.1-1.1-0.2-1.9-0.2h-3V28.9z"/>
	<path fill="#7D1CB6" d="M101.4,17.6h1.5v10.1l6.8-10.1h1.7v12.8h-1.5V20.3l-6.8,10.1h-1.7V17.6z"/>
	<path fill="#7D1CB6" d="M117.5,30.4V19.2h-4.2v-1.5h10.2v1.5h-4.2v11.3H117.5z"/>
	<path fill="#7D1CB6" d="M125.2,30.4V17.6h9.3v1.5h-7.6v3.9h7.1v1.5h-7.1v4.4h7.9v1.5H125.2z"/>
	<path fill="#7D1CB6" d="M137.2,17.6h8.3v1.5h-6.6v3.9h3.1c1.1,0,2,0.1,2.7,0.3c0.7,0.2,1.2,0.6,1.6,1.2c0.4,0.6,0.6,1.3,0.6,2.1
		c0,0.6-0.1,1.3-0.4,1.8c-0.3,0.6-0.7,1-1.3,1.4s-1.5,0.5-2.9,0.5h-5V17.6z M138.9,29h3.4c0.9,0,1.6-0.2,2.1-0.6
		c0.5-0.4,0.7-0.9,0.7-1.7c0-0.5-0.1-1-0.4-1.3s-0.6-0.6-1.1-0.7c-0.5-0.1-1.3-0.2-2.4-0.2h-2.3V29z"/>
	<path fill="#7D1CB6" d="M157.8,26l1.7,0.4c-0.4,1.4-1,2.5-1.9,3.2c-0.9,0.7-2.1,1.1-3.4,1.1c-1.4,0-2.5-0.3-3.4-0.8
		c-0.9-0.6-1.5-1.4-2-2.4c-0.5-1.1-0.7-2.2-0.7-3.4c0-1.3,0.3-2.5,0.8-3.5c0.5-1,1.2-1.7,2.2-2.3c0.9-0.5,2-0.8,3.1-0.8
		c1.3,0,2.4,0.3,3.2,1s1.5,1.6,1.8,2.8l-1.7,0.4c-0.3-0.9-0.7-1.6-1.3-2c-0.6-0.4-1.3-0.6-2.1-0.6c-1,0-1.8,0.2-2.5,0.7
		c-0.7,0.5-1.1,1.1-1.4,1.9c-0.3,0.8-0.4,1.6-0.4,2.5c0,1.1,0.2,2,0.5,2.9c0.3,0.8,0.8,1.4,1.5,1.8s1.4,0.6,2.2,0.6
		c0.9,0,1.8-0.3,2.4-0.8C157.1,27.8,157.6,27,157.8,26z"/>
	<path fill="#7D1CB6" d="M161.6,17.6h1.7v5.6c0.8,0,1.3-0.1,1.6-0.4c0.3-0.3,0.7-1,1.2-2.2c0.4-0.8,0.6-1.4,0.9-1.8
		c0.2-0.3,0.6-0.6,1-0.9c0.4-0.2,0.9-0.4,1.4-0.4c0.7,0,1,0,1,0v1.5c-0.1,0-0.2,0-0.3,0c-0.2,0-0.3,0-0.3,0c-0.5,0-0.9,0.1-1.2,0.4
		c-0.3,0.3-0.6,0.8-0.9,1.7c-0.4,1.1-0.8,1.8-1.1,2c-0.3,0.3-0.7,0.5-1.1,0.7c0.8,0.2,1.6,1,2.4,2.3l2.6,4.3h-2.1l-2.1-3.5
		c-0.6-1-1.1-1.6-1.5-2c-0.4-0.4-0.9-0.5-1.5-0.5v6h-1.7V17.6z"/>
	<path fill="#7D1CB6" d="M172,17.6h1.5v10.1l6.8-10.1h1.7v12.8h-1.5V20.3l-6.8,10.1H172V17.6z"/>
	<path fill="#7D1CB6" d="M184.9,17.6h1.5v10.1l6.8-10.1h1.7v12.8h-1.5V20.3l-6.8,10.1h-1.7V17.6z M191.3,14.6h1.1
		c-0.1,0.7-0.4,1.3-0.8,1.7c-0.4,0.4-1,0.6-1.8,0.6c-0.7,0-1.3-0.2-1.8-0.6c-0.4-0.4-0.7-0.9-0.8-1.7h1.1c0.1,0.4,0.2,0.7,0.5,0.9
		c0.2,0.2,0.6,0.3,1,0.3c0.5,0,0.8-0.1,1.1-0.3C191,15.3,191.2,15,191.3,14.6z"/>
	<path fill="#7D1CB6" d="M89.5,35.5h8.3V37h-6.6v11.3h-1.7V35.5z"/>
	<path fill="#7D1CB6" d="M97.6,42.1c0-2.1,0.6-3.8,1.7-5c1.1-1.2,2.6-1.8,4.4-1.8c1.2,0,2.2,0.3,3.2,0.8c0.9,0.6,1.7,1.4,2.2,2.4
		c0.5,1,0.7,2.2,0.7,3.4c0,1.3-0.3,2.5-0.8,3.5c-0.5,1-1.3,1.8-2.2,2.3c-1,0.5-2,0.8-3.1,0.8c-1.2,0-2.3-0.3-3.2-0.9
		s-1.7-1.4-2.2-2.4C97.9,44.3,97.6,43.2,97.6,42.1z M99.4,42.1c0,1.5,0.4,2.8,1.2,3.6c0.8,0.9,1.9,1.3,3.1,1.3
		c1.3,0,2.3-0.4,3.1-1.3c0.8-0.9,1.2-2.2,1.2-3.8c0-1-0.2-2-0.5-2.7c-0.4-0.8-0.9-1.4-1.5-1.8c-0.7-0.4-1.4-0.6-2.3-0.6
		c-1.2,0-2.2,0.4-3.1,1.2C99.8,38.8,99.4,40.2,99.4,42.1z"/>
	<path fill="#7D1CB6" d="M112.1,48.3V35.5h4.8c0.9,0,1.5,0,1.9,0.1c0.6,0.1,1.2,0.3,1.6,0.6c0.4,0.3,0.8,0.7,1,1.2
		c0.3,0.5,0.4,1.1,0.4,1.7c0,1.1-0.3,2-1,2.8c-0.7,0.8-1.9,1.1-3.8,1.1h-3.3v5.2H112.1z M113.8,41.6h3.3c1.1,0,1.9-0.2,2.3-0.6
		c0.5-0.4,0.7-1,0.7-1.7c0-0.5-0.1-1-0.4-1.4c-0.3-0.4-0.6-0.6-1.1-0.8c-0.3-0.1-0.8-0.1-1.6-0.1h-3.3V41.6z"/>
	<path fill="#7D1CB6" d="M123.1,42.1c0-2.1,0.6-3.8,1.7-5c1.1-1.2,2.6-1.8,4.4-1.8c1.2,0,2.2,0.3,3.2,0.8c0.9,0.6,1.7,1.4,2.2,2.4
		c0.5,1,0.7,2.2,0.7,3.4c0,1.3-0.3,2.5-0.8,3.5c-0.5,1-1.3,1.8-2.2,2.3c-1,0.5-2,0.8-3.1,0.8c-1.2,0-2.3-0.3-3.2-0.9
		s-1.7-1.4-2.2-2.4S123.1,43.2,123.1,42.1z M124.8,42.1c0,1.5,0.4,2.8,1.2,3.6c0.8,0.9,1.9,1.3,3.1,1.3c1.3,0,2.3-0.4,3.1-1.3
		c0.8-0.9,1.2-2.2,1.2-3.8c0-1-0.2-2-0.5-2.7c-0.4-0.8-0.9-1.4-1.5-1.8c-0.7-0.4-1.4-0.6-2.3-0.6c-1.2,0-2.2,0.4-3.1,1.2
		C125.3,38.8,124.8,40.2,124.8,42.1z"/>
	<path fill="#7D1CB6" d="M138.3,35.5h7.8v11.3h1.2v4.5h-1.5v-3h-8.5v3h-1.5v-4.5h1c1-1.6,1.5-4.7,1.5-9.4V35.5z M144.4,37h-4.5v0.7
		c0,1.1-0.1,2.6-0.3,4.5c-0.2,1.9-0.6,3.4-1.1,4.7h5.9V37z"/>
	<path fill="#7D1CB6" d="M158.4,43.8l1.7,0.4c-0.4,1.4-1,2.5-1.9,3.2c-0.9,0.7-2.1,1.1-3.4,1.1c-1.4,0-2.5-0.3-3.4-0.8
		c-0.9-0.6-1.5-1.4-2-2.4c-0.5-1.1-0.7-2.2-0.7-3.4c0-1.3,0.3-2.5,0.8-3.5c0.5-1,1.2-1.7,2.2-2.3c0.9-0.5,2-0.8,3.1-0.8
		c1.3,0,2.4,0.3,3.2,1c0.9,0.7,1.5,1.6,1.8,2.8l-1.7,0.4c-0.3-0.9-0.7-1.6-1.3-2c-0.6-0.4-1.3-0.6-2.1-0.6c-1,0-1.8,0.2-2.5,0.7
		c-0.7,0.5-1.1,1.1-1.4,1.9c-0.3,0.8-0.4,1.6-0.4,2.5c0,1.1,0.2,2,0.5,2.9c0.3,0.8,0.8,1.4,1.5,1.8s1.4,0.6,2.2,0.6
		c0.9,0,1.8-0.3,2.4-0.8C157.7,45.7,158.2,44.9,158.4,43.8z"/>
	<path fill="#7D1CB6" d="M162.2,35.5h1.7v5.6c0.8,0,1.3-0.1,1.6-0.4c0.3-0.3,0.7-1,1.2-2.2c0.4-0.8,0.6-1.4,0.9-1.8
		c0.2-0.3,0.6-0.6,1-0.9c0.4-0.2,0.9-0.4,1.4-0.4c0.7,0,1,0,1,0V37c-0.1,0-0.2,0-0.3,0c-0.2,0-0.3,0-0.3,0c-0.5,0-0.9,0.1-1.2,0.4
		c-0.3,0.3-0.6,0.8-0.9,1.7c-0.4,1.1-0.8,1.8-1.1,2c-0.3,0.3-0.7,0.5-1.1,0.7c0.8,0.2,1.6,1,2.4,2.3l2.6,4.3H169l-2.1-3.5
		c-0.6-1-1.1-1.6-1.5-2c-0.4-0.4-0.9-0.5-1.5-0.5v6h-1.7V35.5z"/>
	<path fill="#7D1CB6" d="M171.9,42.1c0-2.1,0.6-3.8,1.7-5s2.6-1.8,4.4-1.8c1.2,0,2.2,0.3,3.2,0.8s1.7,1.4,2.2,2.4
		c0.5,1,0.7,2.2,0.7,3.4c0,1.3-0.3,2.5-0.8,3.5c-0.5,1-1.3,1.8-2.2,2.3c-1,0.5-2,0.8-3.1,0.8c-1.2,0-2.3-0.3-3.2-0.9
		c-0.9-0.6-1.7-1.4-2.2-2.4S171.9,43.2,171.9,42.1z M173.6,42.1c0,1.5,0.4,2.8,1.2,3.6c0.8,0.9,1.9,1.3,3.1,1.3
		c1.3,0,2.3-0.4,3.1-1.3c0.8-0.9,1.2-2.2,1.2-3.8c0-1-0.2-2-0.5-2.7c-0.4-0.8-0.9-1.4-1.5-1.8c-0.7-0.4-1.4-0.6-2.3-0.6
		c-1.2,0-2.2,0.4-3.1,1.2C174.1,38.8,173.6,40.2,173.6,42.1z"/>
	<path fill="#7D1CB6" d="M186.3,35.5h1.5v10.1l6.8-10.1h1.7v12.8h-1.5V38.2L188,48.3h-1.7V35.5z M192.7,32.5h1.1
		c-0.1,0.7-0.4,1.3-0.8,1.7c-0.4,0.4-1,0.6-1.8,0.6c-0.7,0-1.3-0.2-1.8-0.6c-0.4-0.4-0.7-0.9-0.8-1.7h1.1c0.1,0.4,0.2,0.7,0.5,0.9
		c0.2,0.2,0.6,0.3,1,0.3c0.5,0,0.8-0.1,1.1-0.3C192.5,33.2,192.6,32.9,192.7,32.5z"/>
	<path fill="#7D1CB6" d="M89.5,53.4h10.1v12.8h-1.7V54.9h-6.7v11.3h-1.7V53.4z"/>
	<path fill="#7D1CB6" d="M101.8,60c0-2.1,0.6-3.8,1.7-5c1.1-1.2,2.6-1.8,4.4-1.8c1.2,0,2.2,0.3,3.2,0.8s1.7,1.4,2.2,2.4
		c0.5,1,0.7,2.2,0.7,3.4c0,1.3-0.3,2.5-0.8,3.5c-0.5,1-1.3,1.8-2.2,2.3s-2,0.8-3.1,0.8c-1.2,0-2.3-0.3-3.2-0.9
		c-0.9-0.6-1.7-1.4-2.2-2.4C102.1,62.2,101.8,61.1,101.8,60z M103.6,60c0,1.5,0.4,2.8,1.2,3.6c0.8,0.9,1.9,1.3,3.1,1.3
		c1.3,0,2.3-0.4,3.1-1.3c0.8-0.9,1.2-2.2,1.2-3.8c0-1-0.2-2-0.5-2.7c-0.4-0.8-0.9-1.4-1.5-1.8c-0.7-0.4-1.4-0.6-2.3-0.6
		c-1.2,0-2.2,0.4-3.1,1.2C104,56.7,103.6,58.1,103.6,60z"/>
	<path fill="#7D1CB6" d="M116.2,66.2V53.4h4.8c0.9,0,1.5,0,1.9,0.1c0.6,0.1,1.2,0.3,1.6,0.6c0.4,0.3,0.8,0.7,1,1.2
		c0.3,0.5,0.4,1.1,0.4,1.7c0,1.1-0.3,2-1,2.8c-0.7,0.8-1.9,1.1-3.8,1.1h-3.3v5.2H116.2z M117.9,59.5h3.3c1.1,0,1.9-0.2,2.3-0.6
		c0.5-0.4,0.7-1,0.7-1.7c0-0.5-0.1-1-0.4-1.4c-0.3-0.4-0.6-0.6-1.1-0.8c-0.3-0.1-0.8-0.1-1.6-0.1h-3.3V59.5z"/>
	<path fill="#7D1CB6" d="M130.6,66.2V54.9h-4.2v-1.5h10.2v1.5h-4.2v11.3H130.6z"/>
	<path fill="#7D1CB6" d="M136.3,66.2l4.9-12.8h1.8l5.2,12.8h-1.9l-1.5-3.9h-5.4l-1.4,3.9H136.3z M140,61h4.3l-1.3-3.5
		c-0.4-1.1-0.7-2-0.9-2.7c-0.2,0.8-0.4,1.6-0.7,2.4L140,61z"/>
	<path fill="#7D1CB6" d="M151,53.4h8v12.8h-1.7V54.9h-4.6v6.6c0,1.3-0.1,2.3-0.2,2.9c-0.1,0.6-0.4,1.1-0.8,1.5s-0.9,0.5-1.5,0.5
		c-0.4,0-0.8-0.1-1.3-0.2l0.3-1.5c0.3,0.1,0.5,0.2,0.7,0.2c0.4,0,0.7-0.1,0.9-0.4c0.2-0.3,0.3-1,0.3-2V53.4z"/>
</g>
<g id="log_circle">
	<circle fill="#CC33CC" stroke="#FCFAFB" stroke-width="0.3613" stroke-miterlimit="10" cx="41.1" cy="41.4" r="39.9"/>
	<path fill="#7D1CB6" d="M79.9,49.8L61.6,24.5l-24.5-0.9L26.6,35.2l-6.4,20.1l2.5,5l12.9,20.4c1.9,0.3,3.6,0.4,5.6,0.4
		C60.1,81.1,75.8,67.4,79.9,49.8"/>
	<path fill="#FFFFFF" d="M40,26.7c2.2-0.2,4.1,0.1,5.6,1c1.5,0.8,2.7,2.2,3.4,4l14.4-3.9c-1.2-3.1-2.7-5.6-4.7-7.5
		c-2-1.9-4.3-3.2-7.1-4c-2.8-0.8-6.9-0.9-12.3-0.4c-5.6,0.5-10,1.7-13.2,3.6c-4.1,2.4-7,5.7-8.9,9.9c-1.9,4.1-2.5,8.9-2.1,14.3
		c0.5,5.1,1.9,9.5,4.2,13.2c2.4,3.7,5.5,6.4,9.3,8.1c3.8,1.7,8.7,2.2,14.5,1.7c4.7-0.4,8.8-1.3,12.1-2.7c3.4-1.4,7.1-3.8,11.3-7.3
		l-1.9-20.9l-23.4,2.1L42.3,48l10.1-0.9l0.4,4.6c-1.9,1.4-3.6,2.3-5.1,3c-1.5,0.6-3.1,1-4.8,1.2c-3.6,0.3-6.4-0.6-8.6-2.7
		c-2.2-2.1-3.5-5.8-4-11.1c-0.4-5,0.2-8.7,2-11.2C34.1,28.3,36.7,27,40,26.7"/>
</g>
</svg>
