<?xml version="1.0" encoding="utf-8"?>
<!-- Generator: Adobe Illustrator 18.0.0, SVG Export Plug-In . SVG Version: 6.00 Build 0)  -->
<!DOCTYPE svg PUBLIC "-//W3C//DTD SVG 1.1//EN" "http://www.w3.org/Graphics/SVG/1.1/DTD/svg11.dtd">
<svg version="1.1" id="Layer_1" xmlns="http://www.w3.org/2000/svg" xmlns:xlink="http://www.w3.org/1999/xlink" x="0px" y="0px"
	 width="30.8px" height="22.6px" viewBox="0 0 30.8 22.6" enable-background="new 0 0 30.8 22.6" xml:space="preserve">
<g>
	<path fill="#7D1CB6" d="M30.8,3.5c-0.4,0.9-0.7,1.8-1.1,2.7c-0.8,1.9-1.5,3.8-2.3,5.8c-0.1,0.2-0.2,0.2-0.3,0.2
		c-3.9,0-10.8,0-14.7,0c-0.2,0-0.3,0-0.3-0.2C11,9.2,9.9,6.5,8.8,3.8c0-0.1-0.1-0.2-0.1-0.3C15.1,3.5,24.5,3.5,30.8,3.5
		C30.8,3.5,30.8,3.5,30.8,3.5z M11.3,5.2c0,0.1,0,0.1,0,0.2c0.6,1.6,1.3,3.2,1.9,4.9c0.1,0.2,0.2,0.2,0.3,0.2c3.1,0,9.3,0,12.4,0
		c0.2,0,0.3,0,0.3-0.2c0.5-1.3,1-2.5,1.5-3.7c0.2-0.4,0.3-0.8,0.5-1.2C23.6,5.2,15.9,5.2,11.3,5.2z"/>
	<path fill="#7D1CB6" d="M0,1.7C0,1.1,0,0.6,0,0c0.1,0,0.2,0,0.2,0c1.5,0,2.9,0,4.4,0C4.9,0,4.9,0.1,5,0.2c2,4.5,3.9,8.9,5.9,13.4
		c0.1,0.2,0.2,0.3,0.4,0.3c4.2,0,11.5,0,15.8,0c0.1,0,0.2,0,0.3,0c0,0.6,0,1.1,0,1.7c-0.1,0-0.2,0-0.3,0c-4.6,0-12.3,0-17,0
		c-0.2,0-0.3-0.1-0.4-0.2C7.8,11,5.8,6.5,3.9,2C3.8,1.8,3.7,1.7,3.4,1.7c-1,0-2.1,0-3.1,0C0.2,1.7,0.1,1.7,0,1.7z"/>
	<path fill="#7D1CB6" d="M26.3,20c0,1.4-1.2,2.6-2.6,2.6c-1.4,0-2.6-1.2-2.6-2.6c0-1.4,1.2-2.6,2.6-2.6C25.2,17.4,26.3,18.6,26.3,20
		z M22.9,20c0,0.5,0.4,0.9,0.8,0.9c0.5,0,0.9-0.4,0.9-0.9c0-0.5-0.4-0.9-0.9-0.9C23.3,19.1,22.9,19.5,22.9,20z"/>
	<path fill="#7D1CB6" d="M15.6,20c0,1.4-1.2,2.6-2.6,2.6c-1.4,0-2.6-1.2-2.6-2.6c0-1.4,1.2-2.6,2.6-2.6C14.5,17.4,15.6,18.5,15.6,20
		z M12.2,20c0,0.5,0.4,0.9,0.8,0.9c0.5,0,0.9-0.4,0.9-0.8c0-0.5-0.4-0.9-0.9-0.9C12.6,19.1,12.2,19.5,12.2,20z"/>
</g>
</svg>
