<?xml version="1.0" encoding="utf-8"?>
<!-- Generator: Adobe Illustrator 18.0.0, SVG Export Plug-In . SVG Version: 6.00 Build 0)  -->
<!DOCTYPE svg PUBLIC "-//W3C//DTD SVG 1.1//EN" "http://www.w3.org/Graphics/SVG/1.1/DTD/svg11.dtd">
<svg version="1.1" id="Layer_1" xmlns="http://www.w3.org/2000/svg" xmlns:xlink="http://www.w3.org/1999/xlink" x="0px" y="0px"
	 width="36.2px" height="26.3px" viewBox="0 0 36.2 26.3" enable-background="new 0 0 36.2 26.3" xml:space="preserve">
<g>
	<path fill="none" stroke="#7D1CB6" stroke-width="1.596" stroke-miterlimit="10" d="M1,0.8c10.2,0,19.5,0,29.8,0c0,0.9,0,4.5,0,5.5
		c1,0,3.6,0,4.5,0C35,8.1,30.7,23.5,30.5,25c0,0.2-0.3,0.3-0.5,0.5c-0.1,0-0.2,0-0.3,0c-9.6,0-19.2,0-28.7,0C0.7,25.5,1,9,1,0.8z"/>
	<g>
		<rect x="5.8" y="13.5" fill="none" stroke="#7D1CB6" stroke-width="1.596" stroke-miterlimit="10" width="7.2" height="7.3"/>
		<line fill="none" stroke="#7D1CB6" stroke-width="1.596" stroke-miterlimit="10" x1="4.9" y1="5.9" x2="26.5" y2="5.9"/>
		<line fill="none" stroke="#7D1CB6" stroke-width="1.596" stroke-miterlimit="10" x1="4.9" y1="9.6" x2="26.5" y2="9.6"/>
		<line fill="none" stroke="#7D1CB6" stroke-width="1.596" stroke-miterlimit="10" x1="15.3" y1="13.5" x2="26.6" y2="13.5"/>
		<line fill="none" stroke="#7D1CB6" stroke-width="1.596" stroke-miterlimit="10" x1="15.3" y1="17.2" x2="26.6" y2="17.2"/>
		<line fill="none" stroke="#7D1CB6" stroke-width="1.596" stroke-miterlimit="10" x1="15.3" y1="21" x2="26.6" y2="21"/>
	</g>
</g>
</svg>
