<svg version="1.1" id="Layer_1" xmlns="http://www.w3.org/2000/svg" xmlns:xlink="http://www.w3.org/1999/xlink" x="0px" y="0px"
	 width="196.4px" height="80.2px" viewBox="0 0 196.4 80.2" enable-background="new 0 0 196.4 80.2" xml:space="preserve">
<g id="logo_circle">
	<circle fill="#CC33CC" stroke="#FCFAFB" stroke-width="0.3635" stroke-miterlimit="10" cx="40.1" cy="40.1" r="40.1"/>
	<path fill="#7D1CB6" d="M62.7,26L30,19.6l-8.5,13.1l-4.8,19.5l16.9,26.5c1.4,0.2,3.3-0.2,4.7-0.2h4.1c17.8,0,32.5-12.9,36.6-29.6
		L62.7,26z"/>
	<path fill="#FFFFFF" d="M39,25.3c2.2-0.2,4.1,0.1,5.7,1c1.5,0.9,2.7,2.2,3.5,4l14.5-3.9c-1.2-3.1-2.8-5.6-4.7-7.5
		c-2-1.9-4.4-3.2-7.1-4c-2.8-0.8-6.9-0.9-12.4-0.4c-5.7,0.5-10.1,1.7-13.3,3.6C21,20.5,18,23.8,16.2,28c-1.9,4.2-2.6,9-2.1,14.3
		c0.5,5.1,1.9,9.6,4.3,13.3c2.4,3.8,5.5,6.5,9.4,8.2c3.9,1.7,8.7,2.2,14.6,1.7c4.8-0.4,8.8-1.3,12.2-2.8c3.4-1.4,7.2-3.9,11.4-7.3
		l-1.9-21l-23.5,2.1l0.9,10.3l10.2-0.9l0.4,4.6c-1.9,1.4-3.6,2.4-5.1,3c-1.5,0.6-3.1,1-4.8,1.2c-3.6,0.3-6.5-0.6-8.7-2.7
		c-2.2-2.1-3.5-5.8-4-11.2c-0.4-5,0.2-8.8,2-11.3C33.1,27,35.7,25.6,39,25.3"/>
</g>
<g id="logo_text">
	<path fill="#7D1CB6" d="M88.7,29.1V16.2h4.8c1,0,1.8,0.1,2.4,0.4c0.6,0.3,1.1,0.7,1.4,1.2c0.3,0.5,0.5,1.1,0.5,1.7
		c0,0.6-0.1,1.1-0.4,1.6S96.6,22,96,22.3c0.8,0.2,1.4,0.6,1.8,1.2c0.4,0.6,0.6,1.2,0.6,2c0,0.6-0.1,1.2-0.4,1.7
		c-0.3,0.5-0.6,0.9-0.9,1.2s-0.8,0.5-1.4,0.6c-0.6,0.1-1.3,0.2-2.1,0.2H88.7z M90.4,21.6h2.8c0.8,0,1.3,0,1.6-0.1
		c0.4-0.1,0.8-0.3,1-0.6c0.2-0.3,0.3-0.7,0.3-1.1c0-0.4-0.1-0.8-0.3-1.1S95.4,18,95,17.9s-1-0.2-2-0.2h-2.6V21.6z M90.4,27.6h3.2
		c0.6,0,0.9,0,1.2-0.1c0.4-0.1,0.7-0.2,1-0.4s0.5-0.4,0.7-0.7s0.3-0.7,0.3-1.1c0-0.5-0.1-0.9-0.4-1.3s-0.6-0.6-1-0.7
		c-0.4-0.1-1.1-0.2-1.9-0.2h-3V27.6z"/>
	<path fill="#7D1CB6" d="M100.8,16.2h1.5v10.2l6.9-10.2h1.7v12.9h-1.5V18.9l-6.9,10.2h-1.7V16.2z"/>
	<path fill="#7D1CB6" d="M117,29.1V17.7h-4.2v-1.5H123v1.5h-4.3v11.4H117z"/>
	<path fill="#7D1CB6" d="M124.8,29.1V16.2h9.3v1.5h-7.6v3.9h7.1v1.5h-7.1v4.4h7.9v1.5H124.8z"/>
	<path fill="#7D1CB6" d="M136.8,16.2h8.4v1.5h-6.7v4h3.1c1.1,0,2,0.1,2.7,0.3c0.7,0.2,1.2,0.6,1.6,1.2s0.6,1.3,0.6,2.1
		c0,0.7-0.1,1.3-0.4,1.8c-0.3,0.6-0.7,1-1.3,1.4s-1.6,0.5-2.9,0.5h-5V16.2z M138.5,27.7h3.4c0.9,0,1.6-0.2,2.1-0.6
		c0.5-0.4,0.7-0.9,0.7-1.7c0-0.5-0.1-1-0.4-1.3s-0.6-0.6-1.1-0.7s-1.3-0.2-2.4-0.2h-2.3V27.7z"/>
	<path fill="#7D1CB6" d="M157.5,24.6l1.7,0.4c-0.4,1.4-1,2.5-1.9,3.2c-0.9,0.7-2.1,1.1-3.4,1.1c-1.4,0-2.5-0.3-3.4-0.8
		c-0.9-0.6-1.5-1.4-2-2.5c-0.5-1.1-0.7-2.2-0.7-3.5c0-1.3,0.3-2.5,0.8-3.5c0.5-1,1.2-1.8,2.2-2.3c0.9-0.5,2-0.8,3.1-0.8
		c1.3,0,2.4,0.3,3.3,1s1.5,1.6,1.8,2.8l-1.7,0.4c-0.3-0.9-0.7-1.6-1.3-2s-1.3-0.6-2.1-0.6c-1,0-1.8,0.2-2.5,0.7
		c-0.7,0.5-1.1,1.1-1.4,1.9s-0.4,1.6-0.4,2.5c0,1.1,0.2,2.1,0.5,2.9c0.3,0.8,0.8,1.4,1.5,1.8s1.4,0.6,2.2,0.6c1,0,1.8-0.3,2.4-0.8
		S157.3,25.7,157.5,24.6z"/>
	<path fill="#7D1CB6" d="M161.4,16.2h1.7v5.6c0.8,0,1.3-0.2,1.6-0.5s0.7-1,1.2-2.2c0.4-0.8,0.7-1.4,0.9-1.8c0.2-0.3,0.6-0.6,1-0.9
		s0.9-0.4,1.4-0.4c0.7,0,1,0,1,0v1.5c-0.1,0-0.2,0-0.3,0c-0.2,0-0.3,0-0.3,0c-0.5,0-0.9,0.1-1.2,0.4c-0.3,0.3-0.6,0.8-0.9,1.7
		c-0.4,1.1-0.8,1.8-1.1,2.1s-0.7,0.5-1.1,0.7c0.8,0.2,1.7,1,2.5,2.3l2.7,4.3h-2.1l-2.2-3.5c-0.6-1-1.1-1.6-1.5-2s-0.9-0.5-1.5-0.5v6
		h-1.7V16.2z"/>
	<path fill="#7D1CB6" d="M171.9,16.2h1.5v10.2l6.9-10.2h1.7v12.9h-1.5V18.9l-6.9,10.2h-1.7V16.2z"/>
	<path fill="#7D1CB6" d="M184.8,16.2h1.5v10.2l6.9-10.2h1.7v12.9h-1.5V18.9l-6.9,10.2h-1.7V16.2z M191.2,13.2h1.1
		c-0.1,0.7-0.4,1.3-0.8,1.7c-0.4,0.4-1,0.6-1.8,0.6c-0.8,0-1.3-0.2-1.8-0.6c-0.4-0.4-0.7-1-0.8-1.7h1.1c0.1,0.4,0.2,0.7,0.5,0.9
		c0.2,0.2,0.6,0.3,1,0.3c0.5,0,0.8-0.1,1.1-0.3C191,13.9,191.1,13.6,191.2,13.2z"/>
	<path fill="#7D1CB6" d="M88.8,34.2h8.3v1.5h-6.6v11.4h-1.7V34.2z"/>
	<path fill="#7D1CB6" d="M97,40.8c0-2.1,0.6-3.8,1.7-5s2.6-1.8,4.4-1.8c1.2,0,2.3,0.3,3.2,0.9s1.7,1.4,2.2,2.4
		c0.5,1,0.8,2.2,0.8,3.5c0,1.3-0.3,2.5-0.8,3.5s-1.3,1.8-2.2,2.3s-2,0.8-3.1,0.8c-1.2,0-2.3-0.3-3.3-0.9s-1.7-1.4-2.2-2.4
		S97,42,97,40.8z M98.8,40.9c0,1.6,0.4,2.8,1.3,3.7c0.8,0.9,1.9,1.3,3.1,1.3c1.3,0,2.3-0.5,3.2-1.4c0.8-0.9,1.2-2.2,1.2-3.8
		c0-1-0.2-2-0.5-2.7c-0.4-0.8-0.9-1.4-1.6-1.8c-0.7-0.4-1.4-0.6-2.3-0.6c-1.2,0-2.2,0.4-3.1,1.2C99.2,37.5,98.8,38.9,98.8,40.9z"/>
	<path fill="#7D1CB6" d="M111.5,47.1V34.2h4.9c0.9,0,1.5,0,2,0.1c0.6,0.1,1.2,0.3,1.6,0.6s0.8,0.7,1,1.2c0.3,0.5,0.4,1.1,0.4,1.8
		c0,1.1-0.3,2-1,2.8s-2,1.1-3.8,1.1h-3.3v5.2H111.5z M113.2,40.3h3.3c1.1,0,1.9-0.2,2.3-0.6s0.7-1,0.7-1.7c0-0.5-0.1-1-0.4-1.4
		c-0.3-0.4-0.6-0.6-1.1-0.8c-0.3-0.1-0.8-0.1-1.6-0.1h-3.3V40.3z"/>
	<path fill="#7D1CB6" d="M122.6,40.8c0-2.1,0.6-3.8,1.7-5s2.6-1.8,4.4-1.8c1.2,0,2.3,0.3,3.2,0.9s1.7,1.4,2.2,2.4
		c0.5,1,0.8,2.2,0.8,3.5c0,1.3-0.3,2.5-0.8,3.5s-1.3,1.8-2.2,2.3s-2,0.8-3.1,0.8c-1.2,0-2.3-0.3-3.3-0.9s-1.7-1.4-2.2-2.4
		S122.6,42,122.6,40.8z M124.4,40.9c0,1.6,0.4,2.8,1.3,3.7c0.8,0.9,1.9,1.3,3.1,1.3c1.3,0,2.3-0.5,3.2-1.4c0.8-0.9,1.2-2.2,1.2-3.8
		c0-1-0.2-2-0.5-2.7c-0.4-0.8-0.9-1.4-1.6-1.8c-0.7-0.4-1.4-0.6-2.3-0.6c-1.2,0-2.2,0.4-3.1,1.2C124.8,37.5,124.4,38.9,124.4,40.9z"
		/>
	<path fill="#7D1CB6" d="M137.9,34.2h7.8v11.4h1.2v4.5h-1.5v-3h-8.5v3h-1.5v-4.5h1c1-1.6,1.6-4.7,1.6-9.5V34.2z M144.1,35.7h-4.5
		v0.7c0,1.1-0.1,2.6-0.3,4.5c-0.2,1.9-0.6,3.5-1.2,4.7h5.9V35.7z"/>
	<path fill="#7D1CB6" d="M158.1,42.6l1.7,0.4c-0.4,1.4-1,2.5-1.9,3.2c-0.9,0.7-2.1,1.1-3.4,1.1c-1.4,0-2.5-0.3-3.4-0.8
		c-0.9-0.6-1.5-1.4-2-2.5c-0.5-1.1-0.7-2.2-0.7-3.5c0-1.3,0.3-2.5,0.8-3.5c0.5-1,1.2-1.8,2.2-2.3c0.9-0.5,2-0.8,3.1-0.8
		c1.3,0,2.4,0.3,3.3,1s1.5,1.6,1.8,2.8l-1.7,0.4c-0.3-0.9-0.7-1.6-1.3-2s-1.3-0.6-2.1-0.6c-1,0-1.8,0.2-2.5,0.7
		c-0.7,0.5-1.1,1.1-1.4,1.9s-0.4,1.6-0.4,2.5c0,1.1,0.2,2.1,0.5,2.9c0.3,0.8,0.8,1.4,1.5,1.8s1.4,0.6,2.2,0.6c1,0,1.8-0.3,2.4-0.8
		S157.9,43.7,158.1,42.6z"/>
	<path fill="#7D1CB6" d="M162,34.2h1.7v5.6c0.8,0,1.3-0.2,1.6-0.5s0.7-1,1.2-2.2c0.4-0.8,0.7-1.4,0.9-1.8c0.2-0.3,0.6-0.6,1-0.9
		s0.9-0.4,1.4-0.4c0.7,0,1,0,1,0v1.5c-0.1,0-0.2,0-0.3,0c-0.2,0-0.3,0-0.3,0c-0.5,0-0.9,0.1-1.2,0.4c-0.3,0.3-0.6,0.8-0.9,1.7
		c-0.4,1.1-0.8,1.8-1.1,2.1s-0.7,0.5-1.1,0.7c0.8,0.2,1.7,1,2.5,2.3l2.7,4.3h-2.1l-2.2-3.5c-0.6-1-1.1-1.6-1.5-2s-0.9-0.5-1.5-0.5v6
		H162V34.2z"/>
	<path fill="#7D1CB6" d="M171.7,40.8c0-2.1,0.6-3.8,1.7-5s2.6-1.8,4.4-1.8c1.2,0,2.3,0.3,3.2,0.9s1.7,1.4,2.2,2.4
		c0.5,1,0.8,2.2,0.8,3.5c0,1.3-0.3,2.5-0.8,3.5S182,46,181,46.5s-2,0.8-3.1,0.8c-1.2,0-2.3-0.3-3.3-0.9s-1.7-1.4-2.2-2.4
		S171.7,42,171.7,40.8z M173.5,40.9c0,1.6,0.4,2.8,1.3,3.7c0.8,0.9,1.9,1.3,3.1,1.3c1.3,0,2.3-0.5,3.2-1.4c0.8-0.9,1.2-2.2,1.2-3.8
		c0-1-0.2-2-0.5-2.7c-0.4-0.8-0.9-1.4-1.6-1.8c-0.7-0.4-1.4-0.6-2.3-0.6c-1.2,0-2.2,0.4-3.1,1.2C173.9,37.5,173.5,38.9,173.5,40.9z"
		/>
	<path fill="#7D1CB6" d="M186.3,34.2h1.5v10.2l6.9-10.2h1.7v12.9h-1.5V36.9L188,47.1h-1.7V34.2z M192.7,31.2h1.1
		c-0.1,0.7-0.4,1.3-0.8,1.7c-0.4,0.4-1,0.6-1.8,0.6c-0.8,0-1.3-0.2-1.8-0.6c-0.4-0.4-0.7-1-0.8-1.7h1.1c0.1,0.4,0.2,0.7,0.5,0.9
		c0.2,0.2,0.6,0.3,1,0.3c0.5,0,0.8-0.1,1.1-0.3C192.4,31.9,192.6,31.6,192.7,31.2z"/>
	<path fill="#7D1CB6" d="M88.8,52.2H99v12.9h-1.7V53.7h-6.7v11.4h-1.7V52.2z"/>
	<path fill="#7D1CB6" d="M101.2,58.8c0-2.1,0.6-3.8,1.7-5s2.6-1.8,4.4-1.8c1.2,0,2.3,0.3,3.2,0.9s1.7,1.4,2.2,2.4
		c0.5,1,0.8,2.2,0.8,3.5c0,1.3-0.3,2.5-0.8,3.5s-1.3,1.8-2.2,2.3s-2,0.8-3.1,0.8c-1.2,0-2.3-0.3-3.3-0.9c-1-0.6-1.7-1.4-2.2-2.4
		S101.2,60,101.2,58.8z M103,58.9c0,1.6,0.4,2.8,1.3,3.7c0.8,0.9,1.9,1.3,3.1,1.3c1.3,0,2.3-0.5,3.2-1.4c0.8-0.9,1.2-2.2,1.2-3.8
		c0-1-0.2-2-0.5-2.7c-0.4-0.8-0.9-1.4-1.6-1.8c-0.7-0.4-1.4-0.6-2.3-0.6c-1.2,0-2.2,0.4-3.1,1.2C103.4,55.5,103,56.9,103,58.9z"/>
	<path fill="#7D1CB6" d="M115.7,65.1V52.2h4.9c0.9,0,1.5,0,2,0.1c0.6,0.1,1.2,0.3,1.6,0.6s0.8,0.7,1,1.2c0.3,0.5,0.4,1.1,0.4,1.8
		c0,1.1-0.3,2-1,2.8s-2,1.1-3.8,1.1h-3.3v5.2H115.7z M117.4,58.3h3.3c1.1,0,1.9-0.2,2.3-0.6s0.7-1,0.7-1.7c0-0.5-0.1-1-0.4-1.4
		c-0.3-0.4-0.6-0.6-1.1-0.8c-0.3-0.1-0.8-0.1-1.6-0.1h-3.3V58.3z"/>
	<path fill="#7D1CB6" d="M130.2,65.1V53.7H126v-1.5h10.2v1.5h-4.3v11.4H130.2z"/>
	<path fill="#7D1CB6" d="M135.9,65.1l4.9-12.9h1.8l5.3,12.9H146l-1.5-3.9h-5.4l-1.4,3.9H135.9z M139.6,59.8h4.4l-1.3-3.6
		c-0.4-1.1-0.7-2-0.9-2.7c-0.2,0.8-0.4,1.6-0.7,2.5L139.6,59.8z"/>
	<path fill="#7D1CB6" d="M150.7,52.2h8.1v12.9H157V53.7h-4.7v6.6c0,1.3-0.1,2.3-0.2,3c-0.1,0.6-0.4,1.1-0.8,1.5s-0.9,0.5-1.5,0.5
		c-0.4,0-0.8-0.1-1.4-0.2l0.3-1.5c0.3,0.1,0.5,0.2,0.7,0.2c0.4,0,0.7-0.1,0.9-0.4s0.3-1,0.3-2.1V52.2z"/>
</g>
</svg>
