<?xml version="1.0" encoding="utf-8"?>
<!-- Generator: Adobe Illustrator 18.0.0, SVG Export Plug-In . SVG Version: 6.00 Build 0)  -->
<!DOCTYPE svg PUBLIC "-//W3C//DTD SVG 1.1//EN" "http://www.w3.org/Graphics/SVG/1.1/DTD/svg11.dtd">
<svg version="1.1" id="Layer_1" xmlns="http://www.w3.org/2000/svg" xmlns:xlink="http://www.w3.org/1999/xlink" x="0px" y="0px"
	 width="76.3px" height="76.2px" viewBox="0 0 76.3 76.2" enable-background="new 0 0 76.3 76.2" xml:space="preserve">
<path fill="#F48462" d="M24.2,40.4c-0.3,0.3,0.1,0.6,0,0.9c-0.7,0.1-2.8-0.6-2.8-0.1c0,3.7,0,7.3,0,11c0,0.4,0.9,0.5,1.5,0.7
	c-0.2,0.4,0.2,0.8,0.5,0.9c3.4,3.5,6,7,9.4,10.5c3.3,3.4,6.2,6.9,9.6,10.3c0.3,0.3,0.8,0.6,0.8,1.2c-1.9,0.5-3.8,0.5-5.8,0.5
	C21.1,75.9,7,65.3,1.9,49.7c-0.5-1.5-1-3.1-1.1-4.7c-0.1-0.8,0.4-1.8-0.4-2.5c0-0.2,0-0.4,0-0.5c0,0,0.1-0.1,0.1-0.1
	c0-0.1-0.1-0.1-0.1-0.2c0-0.2,0-0.4,0-0.5c0.4-2,0.5-4,0-6c0.6-8.9,4-16.6,10.1-23.1C28.7-7.5,60.9-2.6,72.5,21.6
	c3.3,6.8,4.5,14,3.3,21.5c-0.6-0.1-0.9-0.6-1.2-1c-4-4-7.9-8.1-11.9-12.1c-2.6-2.6-5.2-5.3-7.8-7.9c-1.7,0-3.4,0-5.1,0
	c-0.8,0-1.2,0.2-1.1,1.2c0.1,0.9,0.1,1.9,0,2.8c-0.1,1,0.3,1.2,1.1,1.3c-0.1,0.3,1.2,0.6,1.1,1c-0.8,0-2.2,0.4-2.2,1
	c0,1.2,0,2.4-0.1,3.7c-1.1-0.3-1.1,3.5-2.4,3.3c-0.1-0.1-0.4-5.5-0.5-5.6c-0.2-0.3-3.8-0.2-5.7-0.2c-0.5,0-0.4,0.5-0.4,0.8
	c0,1.3,0,2.7,0,4c0.1,0.1,0.2,0.2,0.3,0.2c0.1,0.2,1.5,0.7,0.3,0.7c-0.7,0.1-0.6,0.6-0.6,1.1c0,0.9-0.2,2.8-0.2,2.9
	c-0.9-0.9-1.8,0.2-3-0.3c-2.1-0.6-3.8,0.4-5.9,0.3c-1.2-0.4-1.7-4.5-2.8-5"/>
<path fill="#A54D39" d="M75.7,43.8l0.1-0.5c0-0.1,0-0.1,0-0.2c-0.1,0-0.2-0.1-0.3-0.1L54.9,22.2l-5.8,5.1l2.3,2l-2.8,3.8l-2.8-2.2
	l-6.1,4.7l3.1,3l-2.5,2.7l-3.6-3.3L30.5,38l-2.8-2.6l-6.2,3l4.9,4.8L22,53.3l21.3,22.5c0.5,0,0.9,0,1.3-0.1
	C57.6,73.1,67,66,72.7,54.2c1.5-3.1,2.6-6.4,3-9.9L75.7,43.8z"/>
<path fill="#EF8F6D" d="M0.3,35.2c0.5,2,0.5,4,0,6C-0.1,39.2-0.1,37.2,0.3,35.2z"/>
<path fill="#EF8F6D" d="M0.4,42.5c0.8,0.7,0.4,1.6,0.4,2.5C0.5,44.2,0.3,43.4,0.4,42.5z"/>
<path fill="#EF8F6D" d="M0.3,41.7c0,0.1,0.1,0.1,0.1,0.2c0,0,0,0.1-0.1,0.1C0.3,41.9,0.3,41.8,0.3,41.7z"/>
<path fill="#FCFAFA" d="M51.2,53.3c-2.5-0.1-2.4-0.3-2.4-2.9c0-5.3,0-10.5,0-15.8c0-0.5-0.1-1.1-0.1-1.6c0-1.2,0.1-2.4,0.1-3.7
	c0-0.6,0.1-1.1,0.8-1.1c1.5,0,3,0.1,4.5,0c0.7,0,0.9,0.2,0.9,0.9c0,7.7,0,15.4,0,23c0,0.4,0,0.8-0.5,1C53,53.3,52.5,53.3,51.2,53.3z
	"/>
<path fill="#FDFDFD" d="M44.9,36.5c0.3,0,0.6,0,0.8,0c0,5.5,0,11.1,0,16.6c-0.1,0-0.2,0.1-0.3,0.1c-1.7,0-3.4,0-5.1,0
	c-0.2,0-0.4-0.1-0.6-0.1c0-0.5-0.1-0.9-0.1-1.4c0.1-0.1,0.1-0.1,0-0.2c0-3.7,0-7.5,0-11.2c0-0.9,0.1-1.9,0.1-2.8
	c0-0.5-0.1-1,0.6-1.1c1.4,0,2.9,0,4.3,0.1C44.7,36.5,44.8,36.5,44.9,36.5z"/>
<path fill="#FDFCFC" d="M27.7,40.4c0,3.5,0,7.1,0.1,10.6c0,0.2,0,0.4,0,0.6c0,0.4,0,0.9-0.1,1.3c0,0.1-0.1,0.2-0.1,0.3
	c-0.1,0-0.1,0-0.1,0.1c-0.1,0-0.1,0-0.2,0c-1.1-0.1-2.2-0.1-3.3,0c-0.6,0-1.3,0-1.9-0.1c-0.6-0.2-0.5-0.7-0.5-1.1c0-3.7,0-7.3,0-11
	c0-0.5,0-1,0.6-1.2c0.2,0,0.3,0,0.5,0c1.6,0,3.3,0.1,4.9,0.1C27.6,40.2,27.6,40.3,27.7,40.4z"/>
<path fill="#FBFAF9" d="M50.4,27.5c-0.2,0-0.4,0-0.6-0.1c-0.7,0-1.2-0.2-1.1-1.1c0.1-1,0.1-2.1,0-3.1c-0.1-0.9,0.3-1.1,1.1-1.1
	c1.7,0,3.4,0,5.1,0c0,1.7,0,3.4-0.1,5.1c-0.3,0-0.6,0.1-1,0.1c-0.8,0-1.7,0-2.5,0.1"/>
<path fill="#FDFCFC" d="M45.4,35.5c-0.2,0-0.4,0-0.5,0c-0.1,0-0.2,0-0.3,0c-1.4,0-2.9,0-4.3,0c-0.2,0-0.4,0-0.5,0c0-1.3,0-2.7,0-4
	c0-0.3-0.1-0.9,0.4-0.8c1.9,0,3.8-0.4,5.7,0.2c0,0.3,0,0.5,0,0.8c0,1.3-0.1,2.5-0.1,3.8C45.6,35.5,45.5,35.5,45.4,35.5z"/>
<path fill="#FCFAF9" d="M27.7,35.5c0,1.2,0,2.4,0,3.6c-1.9,0-3.8,0-5.7,0.1c-1,0-0.6-1.1-0.6-2c0-0.9-0.2-2,1.4-1.9
	C24.5,35.3,26.1,35,27.7,35.5z"/>
<path fill="#FCFAF9" d="M36.8,37.9c0,1.2,0,2.4,0,3.5c-1.7,0-3.5,0.1-5.2,0.1c-0.7,0-1-0.3-1-1.1c-0.1-1,0-1.9-0.1-2.8
	C32.5,37.7,36.6,37.6,36.8,37.9z"/>
<path fill="#9F402B" d="M39.6,40.4c0,3.7,0,7.5,0,11.2c-0.1,0.1-0.1,0.1-0.2,0.2c-0.3-0.2-0.3-0.5-0.3-0.9c0-3.3,0-6.5,0-9.8
	c0-0.3,0-0.5,0.2-0.8C39.5,40.4,39.5,40.4,39.6,40.4z"/>
<path fill="#FBFAF9" d="M31.2,53.3c-0.7-0.1-0.7-0.5-0.7-1.1c0-2.9,0-5.9,0-8.8c0-0.9,0.4-0.9,1.1-1c1.5,0,2.9,0,4.4,0
	c0.4,0.1,0.8,0,0.8,0.6c0,3.3,0,6.6-0.1,9.9c0,0.1-0.1,0.2-0.2,0.3C34.7,53.2,33,53.2,31.2,53.3z"/>
<path fill="#9F462E" d="M35.9,42.5c-1.5,0-2.9,0-4.4,0c0.1-0.3-0.7-0.6,0-0.9c1.7,0,3.5-0.1,5.2-0.1C36.8,42,36.1,42.1,35.9,42.5z"
	/>
<path fill="#9F432F" d="M53.9,27.6c0.3,0,0.7,0,1,0"/>
<path fill="#9F432F" d="M27.7,51.5c0-0.2,0-0.4,0-0.6C28,51.2,28,51.3,27.7,51.5z"/>
<path fill="#BB867B" d="M45.4,53.5c0-0.1,0-0.1,0-0.2c0.1,0,0.2-0.1,0.3-0.1c0,0.1,0,0.2,0,0.3"/>
<path fill="#F48462" d="M27.3,53.3c0.1-0.1,0.1-0.1,0.2,0C27.4,53.3,27.3,53.3,27.3,53.3z"/>
<path fill="#F48462" d="M27.6,53.2c0-0.1,0.1-0.2,0.1-0.3C27.6,53,27.6,53.1,27.6,53.2z"/>
<path fill="#F48462" d="M39.5,51.8c0.1-0.1,0.1-0.1,0.2-0.2c0.1,0.1,0.1,0.1,0,0.2C39.6,51.8,39.6,51.8,39.5,51.8L39.5,51.8z"/>
<path fill="#F48462" d="M27.7,40.4c-0.1-0.1-0.1-0.2-0.2-0.2C27.7,40.2,27.7,40.2,27.7,40.4z"/>
<path fill="#BB867B" d="M44.9,36.5c-0.1,0-0.2,0-0.3,0"/>
<path fill="#B06C61" d="M45.4,35.5c0.1,0,0.2,0,0.3-0.1"/>
</svg>
