<!DOCTYPE svg PUBLIC "-//W3C//DTD SVG 1.1//EN" "http://www.w3.org/Graphics/SVG/1.1/DTD/svg11.dtd">
<svg version="1.1" id="Layer_1" xmlns="http://www.w3.org/2000/svg" xmlns:xlink="http://www.w3.org/1999/xlink" x="0px" y="0px"
	 width="76.2px" height="76.2px" viewBox="0 0 76.2 76.2" enable-background="new 0 0 76.2 76.2" xml:space="preserve">
<path fill="#FBAB1A" d="M47.4,74.9c-3,1-6.2,1.3-9.4,1.2c-10.1-0.1-18.9-3.5-26.2-10.6C-7.9,46.6-2.1,14.3,23,3.1
	c21.7-9.6,47.5,3.7,52.3,26.9c1.1,5.3,1.2,10.7-0.1,16c-0.3-0.2-0.5-0.5-0.8-0.7c-7-7-13.9-13.9-20.9-20.9c-0.5-0.5-0.9-1.1-1.5-1.3
	c-0.5-0.7-1-1.3-1.8-1.6c-1.5-0.6-3.2,0-4.1,1.2c-1,1.5-0.8,3,0.6,4.7c0,0.4,0,0.8,0.1,1.2l0,0c-0.4-0.3-0.7-0.7-1.1-1
	c-1.1-0.9-1.8-2.2-3.2-2.9c-0.6-1.1-1.5-1.9-2.6-2.4c-2.7-1-5.1,0.1-6.7,3.3c-1-0.9-2-1.8-2.9-2.7c-0.9-1.2-2-1.9-3.6-1.6
	c-2.4,0.4-4.2,3.6-1.7,6.1c0,0.4,0.1,0.7,0.1,1.1c-0.8,1-2.1,1-3.2,1.2c-0.9,0.1-1.3,0.5-1.2,1.5c0.1,4.8,0,9.6,0,14.3
	c0,0.4-0.2,0.9,0.2,1.3c2.1,2.2,4.2,4.3,6.3,6.5c0.1,0.5,0.2,0.9,0.2,1.4c2.9,3.3,6.2,6.2,9.2,9.4C40.2,67.8,43.8,71.3,47.4,74.9z"
	/>
<path fill="#96640C" d="M47.4,74.9c-3.6-3.6-7.1-7.2-10.7-10.8c-3.1-3.1-6.3-6.1-9.2-9.4c6.7,0,13.4,0,20,0c0.5,0,1,0.2,1.4-0.2
	c0.5-0.3,0.3-0.8,0.3-1.2c0-5.6,0-11.2,0-16.8c0-0.4,0.2-0.9-0.3-1.3c-0.3-0.5-0.8-0.4-1.3-0.5c-1.8-0.4-3.8-0.2-5.4-1.2
	c-1.2-0.7-1.9-0.6-2.6,0.4c-0.2,0.3-0.5,0.6-0.8,0.9c-0.3,0.3-0.4,0.6-0.2,0.9c0.8,1.2-0.1,2-0.5,3.1c-0.6-1.2-1.4-2.1-0.5-3.3
	c0.2-0.2,0.1-0.4-0.1-0.6c-0.6-0.7-1.3-1.4-1.9-2.1c-0.2-0.3-0.5-0.2-0.7,0c-1.4,1.2-3.1,1-4.7,1.4c-1,0.2-2.1-0.1-2.9,0.8
	c-0.4,0.4-0.4,0.7,0,1.1c0.1,4.9,0.1,9.8,0,14.7c-0.2,0.1-0.2,0.2,0,0.3c0,0.2,0,0.4,0,0.5c-0.3,0.2-0.3,0.4,0,0.6
	c0.1,0.4,0.1,0.7,0,1.1c-2.1-2.2-4.2-4.3-6.3-6.5c1.1,0,2.2-0.1,3.2,0c0.9,0.1,1.1-0.2,1.1-1.1c0-3.7,0-7.5,0-11.2
	c0-0.8-0.2-1.7,1.1-1.6c0.2,0,0.4-0.1,0.4-0.3c-0.1-1.5,0.1-3.2-1.7-4c0-0.4-0.1-0.7-0.1-1.1c1.5,0.9,3,1.1,4.4-0.1
	c1.3-1,1.5-2.4,0.8-4.4c1,0.9,2,1.8,2.9,2.7c-0.1,1.4-0.1,2.8,0.7,4.1c1.4,2.1,4.2,2.9,6.4,1.8c2.4-1.2,3.3-3.9,2.3-6.7
	c1.3,0.6,2.1,1.9,3.2,2.9c0.4,0.3,0.7,0.7,1.1,1c-0.2,0.4-0.6,0.7-0.9,0.7c-1.6,0.1-1.8,1.4-2.5,2.5c1.6,0.3,3.1,0.5,4.5,0.8
	c0.2,0,0.5,0.2,0.6-0.2c0.5-1.6,0-2.8-1.7-3.8c0-0.4,0-0.8-0.1-1.2c1.5,1,2.9,1.1,4.4,0c1.3-1,1.6-2.4,0.9-4.4
	c0.7,0.2,1.1,0.8,1.5,1.3c7,7,13.9,13.9,20.9,20.9c0.3,0.3,0.5,0.5,0.8,0.7c-1.7,8.4-5.9,15.2-12.3,20.8c-4.2,3.7-8.9,6.2-14.3,7.8
	C48.3,74.8,47.8,74.9,47.4,74.9z M50.8,46.1c0,0.6,0.2,0.9,0.9,0.9c0.9-0.1,1.9-0.1,2.8,0c0.8,0,1-0.3,1-1c0-5,0-10,0-15
	c0-0.8-0.3-1-1-1.1c-0.9-0.1-1.9-0.1-2.8-0.5c-0.4-0.2-0.7-0.8-1.2-0.2c-0.5,0.6-1.5,1-1.2,1.9c0.2,0.8-0.4,2.3,1.4,2.3
	c0.2,0,0.1,0.4,0.1,0.6c-0.6,0.1-0.4,0.6-0.4,1c0,3.4,0,6.8,0,10.3C50.3,45.5,50.2,46,50.8,46.1z M32.7,31.9
	c-0.4-2.1-2.2-3.1-3.6-2.9c-1.7,0.2-1.7,2.2-1.3,3.8C29.5,32.5,31.1,32.2,32.7,31.9z"/>
<path fill="#FCFCFA" d="M27.3,53.4c0.1-0.4,0.1-0.7,0-1.1c0-0.2,0-0.4,0-0.6c0-0.2,0-0.4,0-0.5c0-0.1,0-0.2,0-0.3
	c0.1-4.9,0.1-9.8,0-14.7c0-0.4,0-0.7,0-1.1c0.8-0.9,1.9-0.6,2.9-0.8c1.6-0.4,3.4-0.2,4.7-1.4c0.2-0.2,0.5-0.3,0.7,0
	c0.6,0.7,1.3,1.4,1.9,2.1c0.2,0.2,0.2,0.4,0.1,0.6c-0.9,1.2-0.1,2.1,0.5,3.3c0.5-1.1,1.3-2,0.5-3.1c-0.3-0.4-0.1-0.7,0.2-0.9
	c0.3-0.3,0.6-0.6,0.8-0.9c0.7-1.1,1.4-1.2,2.6-0.4c1.6,1,3.6,0.8,5.4,1.2c0.5,0.1,1,0,1.3,0.5c0,6.4,0,12.9,0,19.3
	c-0.4,0.4-0.9,0.2-1.4,0.2c-6.7,0-13.4,0-20,0C27.4,54.3,27.3,53.9,27.3,53.4z M38.1,51.6c0.7-1.2,1.4-2.2,2-3.3
	c0.2-0.3,0.5-0.7,0.4-1.1c-0.7-2.6-1.5-5.3-2.3-7.9c-1,2.6-1.8,5.2-2.5,7.8c-0.1,0.3,0,0.5,0.1,0.8C36.5,49.1,37.3,50.3,38.1,51.6z"
	/>
<path fill="#FCFCF8" d="M25.1,28.7c1.8,0.8,1.6,2.5,1.7,4c0,0.2-0.2,0.3-0.4,0.3c-1.3-0.1-1.1,0.8-1.1,1.6c0,3.7,0,7.5,0,11.2
	c0,0.9-0.3,1.2-1.1,1.1c-1.1-0.1-2.2,0-3.2,0c-0.4-0.4-0.2-0.8-0.2-1.3c0-4.8,0-9.6,0-14.3c0-1,0.3-1.3,1.2-1.5
	C23.1,29.7,24.3,29.7,25.1,28.7z"/>
<path fill="#FCFBF9" d="M42.6,24.9c1.1,2.9,0.2,5.5-2.3,6.7c-2.2,1.1-5,0.3-6.4-1.8c-0.8-1.3-0.8-2.6-0.7-4.1c1.6-3.1,4-4.3,6.7-3.3
	C41.1,22.9,41.9,23.8,42.6,24.9z"/>
<path fill="#FBFAF7" d="M30.2,23.1c0.7,2,0.4,3.4-0.8,4.4c-1.4,1.1-2.9,1-4.4,0.1c-2.6-2.6-0.8-5.7,1.7-6.1
	C28.2,21.2,29.3,21.9,30.2,23.1z"/>
<path fill="#FBFAF7" d="M52,23.2c0.7,2,0.4,3.4-0.9,4.4c-1.4,1.1-2.9,0.9-4.4,0c-1.4-1.7-1.6-3.2-0.6-4.7c0.9-1.3,2.6-1.8,4.1-1.2
	C51,21.9,51.6,22.5,52,23.2z"/>
<path fill="#FBFBF8" d="M50.8,33.9c0.1-0.2,0.1-0.6-0.1-0.6c-1.8,0-1.1-1.4-1.4-2.3c-0.3-0.9,0.8-1.3,1.2-1.9c0.4-0.6,0.8,0,1.2,0.2
	c0.9,0.5,1.8,0.4,2.8,0.5c0.7,0.1,1,0.3,1,1.1c0,5,0,10,0,15c0,0.7-0.2,1.1-1,1c-0.9-0.1-1.9-0.1-2.8,0c-0.7,0.1-0.8-0.3-0.9-0.9
	C50.8,42,50.8,37.9,50.8,33.9z"/>
<path fill="#F9F7F2" d="M46.8,28.7c1.7,1,2.2,2.2,1.7,3.8c-0.1,0.4-0.4,0.2-0.6,0.2c-1.5-0.2-2.9-0.5-4.5-0.8
	c0.7-1.1,0.9-2.4,2.5-2.5C46.2,29.4,46.6,29.1,46.8,28.7C46.8,28.7,46.8,28.7,46.8,28.7z"/>
<path fill="#F9F7F2" d="M32.7,31.9c-1.6,0.3-3.3,0.6-4.9,0.8c-0.4-1.6-0.4-3.6,1.3-3.8C30.5,28.8,32.3,29.8,32.7,31.9z"/>
<path fill="#925B00" d="M50.8,33.9c0,4.1,0,8.2,0,12.2c-0.6-0.1-0.5-0.6-0.5-1c0-3.4,0-6.8,0-10.3C50.3,34.5,50.2,34,50.8,33.9z"/>
<path fill="#8E5702" d="M48.9,54.5c0-6.4,0-12.9,0-19.3c0.5,0.3,0.3,0.8,0.3,1.3c0,5.6,0,11.2,0,16.8C49.2,53.7,49.4,54.2,48.9,54.5
	z"/>
<path fill="#8C5701" d="M27.2,35.2c0,0.4,0,0.7,0,1.1C26.8,35.9,26.8,35.6,27.2,35.2z"/>
<path fill="#8C5701" d="M27.2,51.8c0,0.2,0,0.4,0,0.6C26.9,52.2,26.9,52,27.2,51.8z"/>
<path fill="#8C5701" d="M27.2,51c0,0.1,0,0.2,0,0.3C27,51.2,27,51.1,27.2,51z"/>
<path fill="#976611" d="M38.1,51.6c-0.8-1.4-1.5-2.5-2.3-3.7c-0.2-0.2-0.2-0.5-0.1-0.8c0.8-2.6,1.5-5.2,2.5-7.8
	c0.8,2.6,1.5,5.2,2.3,7.9c0.1,0.4-0.2,0.8-0.4,1.1C39.5,49.4,38.8,50.4,38.1,51.6z"/>
</svg>
