<?xml version="1.0" encoding="utf-8"?>
<!-- Generator: Adobe Illustrator 18.0.0, SVG Export Plug-In . SVG Version: 6.00 Build 0)  -->
<!DOCTYPE svg PUBLIC "-//W3C//DTD SVG 1.1//EN" "http://www.w3.org/Graphics/SVG/1.1/DTD/svg11.dtd">
<svg version="1.1" id="Layer_1" xmlns="http://www.w3.org/2000/svg" xmlns:xlink="http://www.w3.org/1999/xlink" x="0px" y="0px"
	 width="39.3px" height="39.3px" viewBox="0 0 39.3 39.3" enable-background="new 0 0 39.3 39.3" xml:space="preserve">
<g>
	<g>
		<path fill-rule="evenodd" clip-rule="evenodd" fill="#D54532" d="M19.6,0C25.1,0,30,2.2,33.5,5.7c3.6,3.6,5.8,8.5,5.8,13.9
			c0,5.4-2.2,10.3-5.8,13.9c-3.6,3.6-8.5,5.8-13.9,5.8S9.3,37.1,5.8,33.5C2.2,30,0,25,0,19.6C0,14.2,2.2,9.3,5.8,5.7
			C9.3,2.2,14.2,0,19.6,0L19.6,0z"/>
	</g>
	<g>
		<path fill="#FFFFFF" d="M16.4,18c0.1,0,0.2,0,0.2,0c2.3,0,4.6,0,6.9,0c0.2,0,0.3,0.1,0.3,0.3c0.3,2.2,0,4.2-1.2,6.1
			c-1.1,1.7-2.8,2.7-4.8,3c-1.9,0.3-3.6,0.1-5.3-0.9c-2.3-1.3-3.6-3.3-4-5.8c-0.5-3.3,1.3-6.6,4.3-8.1c1.3-0.6,2.7-0.9,4.1-0.8
			c1.7,0.1,3.2,0.8,4.5,2c0,0,0,0,0,0c0,0,0,0,0,0c-0.8,0.8-1.5,1.5-2.3,2.3c0,0,0,0-0.1,0c-1.8-1.7-4.9-1.5-6.6,0.7
			c-2,2.7-0.7,6.6,2.6,7.4c1.6,0.4,3.2,0,4.3-1.2c0.4-0.5,0.7-1,0.8-1.7c-0.1,0-0.2,0-0.3,0c-1.2,0-2.5,0-3.7,0
			c-0.2,0-0.3-0.1-0.3-0.3c0-0.9,0-1.8,0-2.7C16.4,18.2,16.4,18.1,16.4,18z"/>
		<path fill="#FFFFFF" d="M30.5,20.2c0,0.9,0,1.8,0,2.8c-0.3,0-0.6,0-0.9,0c-0.3,0-0.6,0-0.9,0c-0.2,0-0.2-0.1-0.2-0.2
			c0-0.7,0-1.5,0-2.2c0-0.1,0-0.2,0-0.3c-0.9,0-1.8,0-2.7,0c0-0.7,0-1.3,0-2c0.9,0,1.8,0,2.7,0c0-0.1,0-0.2,0-0.3c0-0.7,0-1.5,0-2.2
			c0-0.2,0-0.2,0.2-0.2c0.6,0,1.2,0,1.8,0c0,0.9,0,1.8,0,2.7c0.1,0,0.2,0,0.3,0c0.7,0,1.5,0,2.2,0c0.3,0,0.3,0,0.3,0.3
			c0,0.5,0,0.9,0,1.4c0,0.1,0,0.2,0,0.3C32.4,20.2,31.5,20.2,30.5,20.2z"/>
	</g>
</g>
</svg>
