<?xml version="1.0" encoding="utf-8"?>
<!-- Generator: Adobe Illustrator 18.0.0, SVG Export Plug-In . SVG Version: 6.00 Build 0)  -->
<!DOCTYPE svg PUBLIC "-//W3C//DTD SVG 1.1//EN" "http://www.w3.org/Graphics/SVG/1.1/DTD/svg11.dtd">
<svg version="1.1" id="Layer_1" xmlns="http://www.w3.org/2000/svg" xmlns:xlink="http://www.w3.org/1999/xlink" x="0px" y="0px"
	 width="39.3px" height="39.3px" viewBox="0 0 39.3 39.3" enable-background="new 0 0 39.3 39.3" xml:space="preserve">
<g>
	<path fill-rule="evenodd" clip-rule="evenodd" fill="#FFFFFF" d="M19.6,0C25.1,0,30,2.2,33.5,5.8c3.6,3.6,5.8,8.5,5.8,13.9
		c0,5.4-2.2,10.3-5.8,13.9c-3.6,3.6-8.5,5.8-13.9,5.8S9.3,37.1,5.8,33.5C2.2,30,0,25.1,0,19.6C0,14.2,2.2,9.3,5.8,5.8
		C9.3,2.2,14.2,0,19.6,0z"/>
	<path fill-rule="evenodd" clip-rule="evenodd" fill="#0D4B9F" d="M19.6,0C25.1,0,30,2.2,33.5,5.8c3.6,3.6,5.8,8.5,5.8,13.9
		c0,5.4-2.2,10.3-5.8,13.9c-3.6,3.6-8.5,5.8-13.9,5.8S9.3,37.1,5.8,33.5C2.2,30,0,25.1,0,19.6C0,14.2,2.2,9.3,5.8,5.8
		C9.3,2.2,14.2,0,19.6,0L19.6,0z"/>
	<path fill="#FFFFFF" d="M13.3,15.7h2.5v-2.3c0-6,4-5.7,4-5.7h4.8v4h-2.9c-1.9,0-2.1,1.4-2.1,2.2v1.9h4.6l-0.7,4h-4v12.1h-3.8V19.6
		h-2.5V15.7z"/>
</g>
</svg>
