<?xml version="1.0" encoding="utf-8"?>
<!-- Generator: Adobe Illustrator 18.0.0, SVG Export Plug-In . SVG Version: 6.00 Build 0)  -->
<!DOCTYPE svg PUBLIC "-//W3C//DTD SVG 1.1//EN" "http://www.w3.org/Graphics/SVG/1.1/DTD/svg11.dtd">
<svg version="1.1" id="Layer_1" xmlns="http://www.w3.org/2000/svg" xmlns:xlink="http://www.w3.org/1999/xlink" x="0px" y="0px"
	 width="39.3px" height="39.3px" viewBox="0 0 39.3 39.3" enable-background="new 0 0 39.3 39.3" xml:space="preserve">
<g>
	<path fill-rule="evenodd" clip-rule="evenodd" fill="#F48120" d="M19.6,0C25.1,0,30,2.2,33.5,5.8c3.6,3.6,5.8,8.5,5.8,13.9
		c0,5.4-2.2,10.3-5.8,13.9c-3.6,3.6-8.5,5.8-13.9,5.8S9.3,37.1,5.8,33.5C2.2,30,0,25.1,0,19.6C0,14.2,2.2,9.3,5.8,5.8
		C9.3,2.2,14.2,0,19.6,0L19.6,0z"/>
	<g>
		<path fill="#FFFFFF" d="M12.9,22.8c-0.6-0.5-0.7-1.4-0.2-2.1c0.5-0.6,1.4-0.7,2.1-0.2c0,0,4.2,3.6,9.7,0c0.7-0.4,1.6-0.3,2,0.4
			c0.4,0.7,0.3,1.6-0.4,2C18.8,27.7,12.9,22.8,12.9,22.8z"/>
		<path fill="#FFFFFF" d="M18.4,24.5C19,24,20,24,20.5,24.6c0.5,0.6,0.5,1.5-0.1,2.1l-4.8,4.4c-0.6,0.5-1.5,0.5-2.1-0.1
			c-0.5-0.6-0.5-1.5,0.1-2.1L18.4,24.5z"/>
		<path fill="#FFFFFF" d="M18.4,26.7c-0.6-0.5-0.6-1.5-0.1-2.1c0.5-0.6,1.5-0.6,2.1-0.1l4.8,4.5c0.6,0.5,0.6,1.5,0.1,2.1
			s-1.5,0.6-2.1,0.1L18.4,26.7z"/>
		<path fill="#FFFFFF" d="M19.6,7.5c1.7,0,3.3,0.7,4.4,1.8c1.1,1.1,1.8,2.7,1.8,4.4s-0.7,3.3-1.8,4.4c-1.1,1.1-2.7,1.8-4.4,1.8
			c-1.7,0-3.3-0.7-4.4-1.8c-1.1-1.1-1.8-2.7-1.8-4.4s0.7-3.3,1.8-4.4C16.3,8.2,17.8,7.5,19.6,7.5L19.6,7.5z M22,11.2
			c-0.6-0.6-1.5-1-2.5-1c-1,0-1.8,0.4-2.5,1c-0.6,0.6-1,1.5-1,2.5s0.4,1.8,1,2.5c0.6,0.6,1.5,1,2.5,1c1,0,1.8-0.4,2.5-1
			c0.6-0.6,1-1.5,1-2.5S22.7,11.9,22,11.2z"/>
	</g>
</g>
</svg>
