<?xml version="1.0" encoding="utf-8"?>
<!-- Generator: Adobe Illustrator 18.0.0, SVG Export Plug-In . SVG Version: 6.00 Build 0)  -->
<!DOCTYPE svg PUBLIC "-//W3C//DTD SVG 1.1//EN" "http://www.w3.org/Graphics/SVG/1.1/DTD/svg11.dtd">
<svg version="1.1" id="Layer_1" xmlns="http://www.w3.org/2000/svg" xmlns:xlink="http://www.w3.org/1999/xlink" x="0px" y="0px"
	 width="39.3px" height="39.3px" viewBox="0 0 39.3 39.3" enable-background="new 0 0 39.3 39.3" xml:space="preserve">
<g>
	<path fill-rule="evenodd" clip-rule="evenodd" fill="#33CBFE" d="M19.6,0C25.1,0,30,2.2,33.5,5.8c3.6,3.6,5.8,8.5,5.8,13.9
		c0,5.4-2.2,10.3-5.8,13.9c-3.6,3.6-8.5,5.8-13.9,5.8S9.3,37.1,5.8,33.5C2.2,30,0,25.1,0,19.7C0,14.2,2.2,9.3,5.8,5.8
		C9.3,2.2,14.2,0,19.6,0L19.6,0z"/>
	<path fill="#FFFFFF" d="M30.6,15.7c-0.3,1-1.1,1.4-1.9,1.8c0.8,0.1,1.5,0.1,2.4-0.2c-0.6,0.9-1.3,1.3-2.2,1.5
		c-0.2,0.1-0.4,0.1-0.5,0.4c-0.4,3.3-2.3,5.8-5.1,7.5c-4.3,2.7-8.8,3.1-13.4,0.6C9.2,27,8.6,26.6,8,26c3.2,1.3,6,0.7,8.4-2
		c-0.6-0.1-1.2,0-1.6-0.5c-0.5-0.6-0.1-1,0.3-1.5c-0.9,0.1-1.6,0.1-2.2-0.4c-0.3-0.2-0.7-0.4-0.7-0.7c0-0.3,0.4-0.5,0.8-0.7
		c0.1,0,0.2-0.1,0.3-0.2c-0.4-0.1-0.9-0.2-1.2-0.3c-0.2-0.1-0.4-0.2-0.5-0.3c-0.4-0.3-0.9-0.7-0.8-1.2c0-0.4,0.7-0.3,1.1-0.6
		c-0.2-0.1-0.5-0.2-0.7-0.4c-0.7-0.4-1.3-1-1.5-1.8c-0.1-0.3-0.1-0.5,0.4-0.4c2.8,0.7,5.7,1,8.2,2.7c0,0,0,0,0.1,0
		c0.2-0.7,0.3-1.5,0.5-2.2c0.4-1.3,0.8-2.5,1.7-3.5c0.2-0.2,0.3-0.6,0.8-0.4c0.1,0,0.2-0.1,0.3-0.2c0.3-0.2,0.6-0.4,0.9-0.5
		c0.2,0.1,0,0.3,0,0.4c0,0-0.1,0.1-0.1,0.1c0.1,0.1,0.2,0,0.2,0c0.3-0.1,0.5-0.2,0.8-0.3c0.1,0,0.3-0.1,0.4,0.1
		c0.1,0.2,0,0.3-0.1,0.4c-0.3,0.3-0.7,0.4-1.1,0.6c-0.1,0-0.2,0.1-0.3,0.2c2.6-0.1,4.4,1.2,5.5,3.5c0.1,0.3,0.3,0.4,0.7,0.4
		C29.1,16.3,29.8,15.9,30.6,15.7C30.5,15.7,30.5,15.7,30.6,15.7z"/>
</g>
</svg>
