<?xml version="1.0" encoding="utf-8"?>
<!-- Generator: Adobe Illustrator 18.0.0, SVG Export Plug-In . SVG Version: 6.00 Build 0)  -->
<!DOCTYPE svg PUBLIC "-//W3C//DTD SVG 1.1//EN" "http://www.w3.org/Graphics/SVG/1.1/DTD/svg11.dtd">
<svg version="1.1" id="Layer_1" xmlns="http://www.w3.org/2000/svg" xmlns:xlink="http://www.w3.org/1999/xlink" x="0px" y="0px"
	 width="39.3px" height="39.3px" viewBox="0 0 39.3 39.3" enable-background="new 0 0 39.3 39.3" xml:space="preserve">
<g>
	<path fill-rule="evenodd" clip-rule="evenodd" fill="#FF0000" d="M19.6,0.1c5.4,0,10.3,2.2,13.8,5.7c3.5,3.5,5.7,8.4,5.7,13.8
		c0,5.4-2.2,10.3-5.7,13.8c-3.5,3.5-8.4,5.7-13.8,5.7S9.3,37,5.8,33.4C2.3,29.9,0.1,25,0.1,19.6c0-5.4,2.2-10.3,5.7-13.8
		C9.3,2.3,14.2,0.1,19.6,0.1L19.6,0.1z"/>
	<path fill="#FFFFFF" d="M30,23.9c0,2.3-1.8,4.1-4.1,4.1H12.1C9.8,28,8,26.2,8,23.9v-7.8c0-2.3,1.8-4.1,4.1-4.1h13.8
		c2.3,0,4.1,1.8,4.1,4.1V23.9z"/>
	<polygon fill="#FF0000" points="16.3,16.4 24.4,20.3 16.3,24.8 	"/>
</g>
</svg>
