<?xml version="1.0" encoding="utf-8"?>
<!-- Generator: Adobe Illustrator 18.0.0, SVG Export Plug-In . SVG Version: 6.00 Build 0)  -->
<!DOCTYPE svg PUBLIC "-//W3C//DTD SVG 1.1//EN" "http://www.w3.org/Graphics/SVG/1.1/DTD/svg11.dtd">
<svg version="1.1" id="Layer_1" xmlns="http://www.w3.org/2000/svg" xmlns:xlink="http://www.w3.org/1999/xlink" x="0px" y="0px"
	 width="39.3px" height="39.3px" viewBox="0 0 39.3 39.3" enable-background="new 0 0 39.3 39.3" xml:space="preserve">
<g>
	<path fill-rule="evenodd" clip-rule="evenodd" fill="#0097BD" d="M19.6,0C25.1,0,30,2.2,33.5,5.8c3.6,3.6,5.8,8.5,5.8,13.9
		c0,5.4-2.2,10.3-5.8,13.9c-3.6,3.6-8.5,5.8-13.9,5.8S9.3,37.1,5.8,33.5C2.2,30,0,25.1,0,19.7C0,14.2,2.2,9.3,5.8,5.8
		C9.3,2.2,14.2,0,19.6,0L19.6,0z"/>
	<g>
		<path fill="#FFFFFF" d="M15.6,11.8c0,1-0.8,1.8-2,1.8c-1.1,0-1.9-0.8-1.9-1.8c0-1.1,0.7-1.8,1.9-1.8C14.8,9.9,15.5,10.7,15.6,11.8
			z M11.8,26.7V15h3.6v11.7H11.8z"/>
		<path fill="#FFFFFF" d="M18.4,18.8c0-1.5,0-2.7-0.1-3.7h3.2l0.2,1.6h0.1c0.5-0.7,1.7-1.9,3.6-1.9c2.4,0,4.2,1.6,4.2,5v6.9h-3.6
			v-6.5c0-1.5-0.5-2.5-1.8-2.5c-1,0-1.6,0.7-1.8,1.4C22.1,19.3,22,19.6,22,20v6.8h-3.6V18.8z"/>
	</g>
</g>
</svg>
